/* XPM */
static char *result[] = {
/* columns rows colors chars-per-pixel */
"60 64 222 2 ",
"   c #060101",
".  c #090504",
"X  c #0E0905",
"o  c #1C1714",
"O  c #16110A",
"+  c #261809",
"@  c #251C17",
"#  c #321F0B",
"$  c #3B240E",
"%  c #2D241E",
"&  c #2B2316",
"*  c #382917",
"=  c #2B1F22",
"-  c #2E2421",
";  c #312524",
":  c #342B26",
">  c #3E392A",
",  c #3E2F32",
"<  c #3F3D33",
"1  c #462C13",
"2  c #463319",
"3  c #533414",
"4  c #5C3916",
"5  c #5C3B19",
"6  c #593616",
"7  c #442A0E",
"8  c #653D19",
"9  c #673F18",
"0  c #453B26",
"q  c #523E22",
"w  c #493538",
"e  c #5B401E",
"r  c #6C431B",
"t  c #674118",
"y  c #72461B",
"u  c #75491C",
"i  c #7B4B1E",
"p  c #594324",
"a  c #5A462A",
"s  c #4C4934",
"d  c #5A543C",
"f  c #524E38",
"g  c #654C2B",
"h  c #6B4924",
"j  c #69522E",
"k  c #7A5526",
"l  c #665639",
"z  c #745B35",
"x  c #6E4D26",
"c  c #7C6238",
"v  c #523C41",
"b  c #49494E",
"n  c #5A4246",
"m  c #5A4348",
"M  c #585542",
"N  c #5B595A",
"B  c #504D52",
"V  c #63484D",
"C  c #664D52",
"Z  c #6A5357",
"A  c #75555C",
"S  c #77595B",
"D  c #625C42",
"F  c #6D6A4C",
"G  c #686246",
"H  c #756847",
"J  c #7C6A59",
"K  c #757253",
"L  c #7B7453",
"P  c #7B795A",
"I  c #7D765C",
"U  c #7C5C63",
"Y  c #775961",
"T  c #635F65",
"R  c #5E606B",
"E  c #757273",
"W  c #6E696C",
"Q  c #814F1E",
"!  c #84521E",
"~  c #89551E",
"^  c #8D591F",
"/  c #945C1F",
"(  c #865B27",
")  c #955E20",
"_  c #946125",
"`  c #9A6324",
"'  c #9E6B2B",
"]  c #996729",
"[  c #886939",
"{  c #99733A",
"}  c #8F6730",
"|  c #A16C2B",
" . c #A57432",
".. c #A87733",
"X. c #AD7D3B",
"o. c #A97937",
"O. c #A4712F",
"+. c #857349",
"@. c #9D7B44",
"#. c #817957",
"$. c #857D5A",
"%. c #857754",
"&. c #967E57",
"*. c #A17D43",
"=. c #865E6E",
"-. c #8A666B",
";. c #8D696C",
":. c #856569",
">. c #8B6871",
",. c #926C74",
"<. c #946A78",
"1. c #9C727C",
"2. c #977B71",
"3. c #8C7072",
"4. c #A1777F",
"5. c #B1823E",
"6. c #AF803D",
"7. c #8B825D",
"8. c #82805E",
"9. c #978456",
"0. c #A98448",
"q. c #B38542",
"w. c #B48C4C",
"e. c #BA8E4A",
"r. c #B88A46",
"t. c #BC924E",
"y. c #BD9552",
"u. c #B99453",
"i. c #8D8462",
"p. c #8B8A66",
"a. c #8B8468",
"s. c #938B64",
"d. c #968B67",
"f. c #9C936A",
"g. c #99946A",
"h. c #9E9D73",
"j. c #9B9474",
"k. c #A3996D",
"l. c #A0976C",
"z. c #A69D71",
"x. c #A99E71",
"c. c #ABA374",
"v. c #A8A57A",
"b. c #B4AB7B",
"n. c #B5AB7B",
"m. c #BBB17E",
"M. c #C09753",
"N. c #C29954",
"B. c #C19B5C",
"V. c #C0944E",
"C. c #C19B60",
"Z. c #C9A86F",
"A. c #797C8D",
"S. c #997782",
"D. c #937484",
"F. c #A57984",
"G. c #AC7E89",
"H. c #A67A84",
"J. c #AD7995",
"K. c #858588",
"L. c #97888D",
"P. c #949295",
"I. c #848797",
"U. c #AE808B",
"Y. c #B18B95",
"T. c #BAB583",
"R. c #AFB2BD",
"E. c #AFACAF",
"W. c #9DA2B6",
"Q. c #C1B684",
"!. c #C5BA85",
"~. c #C8BD87",
"^. c #C5BD8A",
"/. c #C9BE89",
"(. c #C497A6",
"). c #C6A1AD",
"_. c #D3AAB7",
"`. c #C9A7B2",
"'. c #C18F9D",
"]. c #CCC38C",
"[. c #C4C28D",
"{. c #D2C88F",
"}. c #CEC690",
"|. c #CDCB94",
" X c #C7C690",
".X c #D4CC93",
"XX c #D5CC93",
"oX c #DAD296",
"OX c #DBD69A",
"+X c #DDDB9E",
"@X c #D7D097",
"#X c #E2DB9D",
"$X c #E0D799",
"%X c #DEDBA0",
"&X c #DECBAA",
"*X c #E1DEA2",
"=X c #E0CFB0",
"-X c #E6E2A3",
";X c #EAE5A4",
":X c #ECE9A6",
">X c #ECEAA9",
",X c #F1EDAA",
"<X c #F5F2AD",
"1X c #F8F5AE",
"2X c #F5F3B2",
"3X c #F8F5B3",
"4X c #F8F6BA",
"5X c #B6B8C6",
"6X c #D9AFC3",
"7X c #BCC0D5",
"8X c #C9CBD1",
"9X c #E6D2CB",
"0X c #FAF7C4",
"qX c #F9F8C7",
"wX c #FBF9D4",
"eX c #FAF9D9",
"rX c #D7D9E4",
"tX c #DEE1E8",
"yX c #FCFBE2",
"uX c #F9F9FB",
"iX c #E8E9EE",
"pX c None",
/* pixels */
"pXpXpXpXpXpXpXpXpXpXpXpXpXpXpXpXpXpX2 pXpXpXpXpXpXpXpXpXpXpXpXpXpXpXpXpXpXpXpXpXpXpXpXpXpXpXpXpXpXpXpXpXpXpXpXpXpXpXpXpX",
"pXpXpXpXpXpXpXpXpXpXpXpXpXpXpXpXz @.pXpXpXpXpXpXpXpXpXpXpXpXpXpXpXpXpXpXpXpXpXpXpXpXpXpXpXpXpXpXpXpXpXpXpXpXpXpXpXpXpXpX",
"pXpXpXpXpXpXpXpXpXpXpXpXpXpX* @.y.@.pXpXpXpXpXpXpXpXpXpXpXpXpXpXpXpXpXpXpXpXpXpXpXpXpXpXpXpXpXpXpXpXpXpXpXpXpXpXpXpXpXpX",
"pXpXpXpXpXpXpXpXpXpXpXpXpXj y.M.e.@ q z z * pXpXpXpXpXpXpXpXpXpXpXpXpXpXpXpXpXpXpXpXpXpXpXpXpXpXpXpXpXpXpXpXpXpXpXpXpXpX",
"pXpXpXpXpXpXpXpXpXv.pXpXz N.M.M.t.w.q.' $ pXpXpXpXpXpXpXpXpXpXpXpXpXpXpXpXpXpXpXpXpXpXpXpXpXpXpXpXpXpXpXpXpXpXpXpXpXpXpX",
"pXpXpXpXpXpXpXs p.:X% %.B.N.M.V.r. ._ ~ $ pXpXpXpXpXpXpXpXpXpXpXpXpXpXpXpXpXpXpXpXpXpXpXpXpXpXpXpXpXpXpXpXpXpXpXpXpXpXpX",
"pXpXpXpXpXpXpXh.|. XT.&XZ.N.M.M.e. .~ 3 pXpXpXpXpXpXpXpXpXpXpXpXpXpXpXpXpXpXpXpXpXpXpXpXpXpXpXpXpXpXpXpXpXpXpXpXpXpXpXpX",
"pXpXpXpXpXpXP 3X[.a.9X=XB.t.r...^ ( ( j F 8.L o pXpXpXpXpXpXpXpXpXpXpXpXpXpXpXpXpXpXpXpXpXpXpXpXpXpXpXpXpXpXpXpXpXpXpXpX",
"pXpXpXpXpXpXz.+X9.y.y.u.@.} +.&.n..X+X:X1X;XP pXpXpXpXpXpXpXpXpXpXpXpXpXpXpXpXpXpXpXpXpXpXpXpXpXpXpXpXpXpXpXpXpXpXpXpXpX",
"pXpXpXpXpXpXT.&.w.q.| ( +.x.:X3X1X1X1X1X<X<X<X|.h.pXpXpXpXpXpXpXpXpXpXpXpXpXpXpXpXpXpXpXpXpXpXpXpXpXpXpXpXpXpXpXpXpXpXpX",
"pXpXpXpXpXf +.) ^ k f.Q.XX{.].Q.T.v.v.v.T..X*X;X>Xv.pXpXpXpXpXpXpXpXpXpXpXpXpXpXpXpXpXpXpXpXpXpXpXpXpXpXpXpXpXpXpXpXpXpX",
"pXpXpXpXpXJ g ( z i.j.#.d f E.E.< % 2 k k z z &.s.T.d.pXpXpXpXpXpXpXpXpXpXpXpXpXpXpXpXpXpXpXpXpXpXpXpXpXpXpXpXpXpXpXpXpX",
"pXpXE E.).).'.>.7.8.P.N % Z iX8X.     $ ) / / o.. pXpXpXpXpXpXpXpXpXpXpXpXpXpXpXpXpXpXpXpXpXpXpXpXpXpXpXpXpXpXpXpXpXpXpX",
"pXS.9X6X_.).Y.G.$.oXv.d : 8XuXN   .     8 ^ / ..2 pXpXpXpXpXpXpXpXpXpXpXpXpXpXpXpXpXpXpXpXpXpXpXpXpXpXpXpXpXpXpXpXpXpXpX",
"v S.U.H.G.G.G.G.,.v.1X<Xh.E E . . o X   X t _ ` [ pXpXpXpXpXpXpXpXpXpXpXpXpXpXpXpXpXpXpXpXpXpXpXpXpXpXpXpXpXpXpXpXpXpXpX",
"pX; w C S U 1.G.S.a.1X1X1XOXG X . o - o @ * ^ ` { pXpXpXpXpXpXpXpXpXpXpXpXpXpXpXpXpXpXpXpXpXpXpXpXpXpXpXpXpXpXpXpXpXpXpX",
"pXpXpX; ;.:.S ;.G.;.1X<X<X<X>Xi.o @ - - - % u ` { pXpXpXpXpXpXpXpXpXpXpXpXpXpXpXpXpXpXpXpXpXpXpXpXpXpXpXpXpXpXpXpXpXpXpX",
"pXpXpXpXw -.Y =.=.C <X<X<X<X<X<X[.: - - - % i ) ` 1 pXpXpXpXpXpXpXpXpXpXpXpXpXpXpXpXpXpXpXpXpXpXpXpXpXpXpXpXpXpXpXpXpXpX",
"pXpXpXpXpXm F.J.<.w ,X<X<X<X<X<X>X: - - & e / / / 8 pXpXpXpXpXpXpXpXpXpXpXpXpXpXpXpXpXpXpXpXpXpXpXpXpXpXpXpXpXpXpXpXpXpX",
"pXpXpXpXpXD.6XJ.,.S ,X1X<X<X1X<X.X@ - % e ^ / / / ( pXpXpXpXpXpXpXpXpXpXpXpXpXpXpXpXpXpXpXpXpXpXpXpXpXpXpXpXpXpXpXpXpXpX",
"pXpXpXpXV J.J.D.1.d.,X1X1X1X1X1XP - * ! ` ` / / / ) 1 pXpXpXpXpXpXpXpXpXpXpXpXpXpXpXpXpXpXpXpXpXpXpXpXpXpXpXpXpXpXpXpXpX",
"pXpXpXpXC <.S.H.2.m.<X<X<X1X<X<X> 2 } 5.| ) / ) ) ) t pXpXpXpXpXpXpXpXpXpXpXpXpXpXpXpXpXpXpXpXpXpXpXpXpXpXpXpXpXpXpXpXpX",
"pXpXpXpXpX; %.2.m..X<X<X,X<X,Xv.0 e.V.5.` ) ) ) ) ) ) + pXpXpXpXpXpXpXpXpXpXpXpXpXpXpXpXpXpXpXpXpXpXpXpXpXpXpXpXpXpXpXpX",
"pXpXpXpXpXpX:XOXoX:X1X<X<X<X:X7.y.y.5.| / / / ) ] _ k 3 pXpXpXpXpXpXpXpXpXpXpXpXpXpXpXpXpXpXpXpXpXpXpXpXpXpXpXpXpXpXpXpX",
"pXpXpXpXpXM 3X1X1X1X1X1X1X1XOXw.N.y.5.../ / ` o.V.M.M.V.*.g pXpXpXpXpXpXpXpXpXpXpXpXpXpXpXpXpXpXpXpXpXpXpXpXpXpXpXpXpXpX",
"pXpXpXpXpX[.1X1X<X<X<X1X1X<X Xw.N.y.w.| ) ` X.M.M.V.M.M.y.y.0.[ 2 pXpXpXpXpXpXpXpXpXpXpXpXpXpXpXpXpXpXpXpXpXpXpXpXpXpXpX",
"pXpXpXpXpX+X1X1X<X,X<X,X<X1Xm.w.M.M.X./ / | y.M.M.M.y.y.y.y.y.M.0.p pXpXpXpXpXpXpXpXpXpXpXpXpXpXpXpXpXpXpXpXpXpXpXpXpXpX",
"pXpXpXpXz.1X1X3X<X<X<X<X<X1X*X+.N.V.| / | e.M.M.M.y.y.y.y.M.M.M.y.t.{ 2 pXpXpXpXpXpXpXpXpXpXpXpXpXpXpXpXpXpXpXpXpXpXpXpX",
"pXpXpXpX>X2X1X<X2X1X2X1X1X1X<Xv.0.q.` / o.V.M.M.y.y.y.M.M.M.M.M.y.t.o._ 6 pXpXpXpXpXpXpXpXpXpXpXpXpXpXpXpXpXpXpXpXpXpXpX",
"pXpXpXg.3X2X1X1X<X1X<X1X1X<X1X1X7.' / / q.N.M.M.y.u.y.y.M.M.M.M.y.u.q.` / u pXpXpXpXpXpXpXpXpXpXpXpXpXpXpXpXpXpXpXpXpXpX",
"pXpXpX|.0X3X3X1X2X4X1X2X1X1X1X1X,X+.( ~ 0.N.M.M.M.M.y.y.y.M.M.M.N.y.t.o./ ! 7 X pXpXpXpXpXpXpXpXpXa j p pXpXpXpXpXpXpXpX",
"pXpXf 0XeX0XwX3XwXwX<X4X<X1X1X1X;X{.+.r e.N.M.M.M.M.y.y.y.y.y.M.N.N.e.6._ / 1 pXpXpXpXpXpXpXpX& { N.N.N.N.c * pXpXpXpXpX",
"pXpXT.qXwXwXyX0XyXyX0X4X1X1X1X1X$X/.Q.%.y.M.M.M.y.u.t.M.y.y.y.y.y.N.V.| / / y pXpXpXpXpXpXpX* 0.y.y.y.y.y.y.w.{ pXpXpXpX",
"pXpXOX3XwXwXeXeXyXeXqX3X1X1X1X-X}.Q.!.d.e.y.y.y.u.y.y.M.y.y.y.y.y.y.t. ./ / 1 + pXpXpXpXpXp w.y.y.y.y.u.y.y.y.y.w.j pXpX",
"pXpX>X>XeX2XqXeXqX4X0X1X1X1X>XoXQ.Q.Q.i.| *.e.V.t.y.V.M.y.M.M.M.y.5.5. .) ) x 0 pXpXpXO e 0.e.y.M.M.y.y.y.t.w.t.y.t.( pX",
"pXp.2X>XqX>X0X0X3X1X4X1X1X,X:X~.Q.Q.l.d./ ) ] )  . .......*.e.e.5...] _ ! ! u 2 & 3 3 8 ! ) '  .o.X.{ [ c k } k ( ^ r + ",
"pXp.,X:X3X1X4X2X1X1X3X1X1X,X-X!.Q.Q.d.d.Q ) ) ) ) ) ) ) ) ) O.o.' | ^ ~ ! i t 0 l 8 3 i Q ! ( ) ! t 9 u ' .. . .k # pXpX",
"pXv.|.%X1X<X2X[.1X1X1X1X,X,XoX!.c.T.l.k.8 ) ) ~ ^ ^ / ) ) ) ) ~ ~ ! Q Q i i y c n.p i i i i 4 6 t ^ ) ' O. . ... .' 2 pX",
"pXh.c.+X1X<X<Xg.3X1X1X1X:X].{.~.n.d.z.x.h Q ! ! ! Q Q ! ! Q ! ! i i i i y 9 h G ~.H i i 9 3 8 u ! ! ^ _  . ..... ...( $ ",
"pX8.F |.<X<X<Xs.,X,X;X#X$Xl.{.m.Q.M x.z.H y Q Q Q i i Q i Q 6 9 u i u i 9 L a s.!.f.4 1 r i i i i Q ( ) ) _ O...O.k * pX",
"pXd s m.-X<X*Xs.^..X*X{.!.i.{.!.~.0 d.x.d.h i i i i i i y i 6 a y 5 8 i 9 k.~.!.m.x.q i i i i i i i ! i u t e 3 pXpXpXpX",
"pXpXo s.].:X].g.f.z.#X^.Q.$.~.~.!.f L Q.!.z i i u i i i i i i H %.q T.q s m.Q.!.oXn.K 8 t h 8 6 1 $ + X pXpXpXpXpXpXpXpX",
"pXpXpXK /..Xz.d.7.i.XX~.!.x.F m.~.F n.Q.Q.d.r u u i i i i i i y k.f.Q.n.m.~.!.~.+X|./.O pXpXpXpXpXpXpXpXpXpXpXpXpXpXpXpX",
"pXpXpXpXl.].#.c.#.L ~.~.!.!.s n.~.L !.Q.Q.T.g i i i i i i i i y l !.!.Q.!.~.!.~.].%X|.f pXpXpXpXpXpXpXpXpXpXpXpXpXpXpXpX",
"pXpXpXpXpX: > #.#.G d.!.!.~.L L F k.Q.Q.Q.!.Q.g i i r u i u i i 1 l.~.~.~./.XXXXT.+Xp.p.pXpXpXpXpXpXpXpXpXpXpXpXpXpXpXpX",
"pXpXpXpXpXpXpX#.c.%.f.#.l.x.$.Q.x.!.!.Q.Q.!.!.k.h i q h r h r r a n./.XX~./.;X*X.X Xv.a.pXpXpXpXpXpXpXpXpXpXpXpXpXpXpXpX",
"pXpXpXpXpXpXpXpXx././.m.z.c./.!.!.!.^.Q.Q.Q.Q.!.k.p j 7.a d c z s.~./.,X$XXX#X,X2XT.*XK pXpXpXpXpXpXpXpXpXpXpXpXpXpXpXpX",
"pXpXpXpXpXpXpXpXpXG ~.XX/.~.!.}./.!.Q.Q.Q.Q.Q.!.!.!.%.$.k.x.~.!.Q.Q.~.$X1X1X1X1X<XOXT.K pXpXpXpXpXpXpXpXpXpXpXpXpXpXpXpX",
"pXpXpXpXpXpXpXpXpXpXK b.oX{.].{.XX].!.Q.Q.Q.!.!.Q.Q.!.Q.f.d.n.!.~.m.m.]..X:X1X1X1X<Xh.P pXpXpXpXpXpXpXpXpXpXpXpXpXpXpXpX",
"pXpXpXpXpXpXpXpXpXpXpXpXK oXoXXXoXoX{.^.Q.Q.!.^.Q.Q.T.Q.!.Q.s.$.!.~.~.~.m.h.:X3X<X1X>XK pXpXpXpXpXpXpXpXpXpXpXpXpXpXpXpX",
"pXpXpXpXpXpXpXpXpXpXpXpXpXpXs.^.$XoXXXXX{.^.Q.Q.Q.!.Q.Q.!.!.!.m.7.#.s.!.].m.f.T.1X1X1XP pXpXpXpXpXpXpXpXpXpXpXpXpXpXpXpX",
"pXpXpXpXpXpXpXpXpXpXpXpXpXpXpXpXF T.^.].}.{./.Q.!.!.!.!.!.!.~.m.c.l pXo G k.n.l.b.:X1X XpXpXpXpXpXpXpXpXpXpXpXpXpXpXpXpX",
"pXpXpXpXpXpXpXpXpXpXpXpXpXpXpXpXpX, J J i.f.z.c.x.x.c.k.d.7.D f pXpXpXpXpXpXpXd > G |.+XpXpXpXpXpXpXpXpXpXpXpXpXpXpXpXpX",
"pXpXpXpXpXpXpXpXpXpXpXpXpXpXpXpX: n ;.-.pXpXpX0 > w U S ; pXpXpXpXpXpXpXpXpXpXpXpXpXpXP pXpXpXpXpXpXpXpXpXpXpXpXpXpXpXpX",
"pXpXpXpXpXpXpXpXpXv A V n pXw m :.;.;.;.n w pXpXpX- G.U.V pXpXpXpXpXpXpXpXpXpXpXpXpXpXpXpXpXpXpXpXpXpXpXpXpXpXpXpXpXpXpX",
"pXpXpXpXpXpXB F.U.G.:.U A A S U -.;.;.;.;.S Z pXm A G.G.U v pXpXpXpXpXpXpXpXpXpXpXpXpXpXpXpXpXpXpXpXpXpXpXpXpXpXpXpXpXpX",
"pXpXpXpXpXK.tXD.,.U E D.(.'.F.;.,.;.n , n Z m >.G.G.G.G.G.H.=.v U : pXpXpXpXpXpXpXpXpXpXpXpXpXpXpXpXpXpXpXpXpXpXpXpXpXpX",
"pXpXpXpXb rX7XR V Z iX5X>.3.A Z L.1.1.,.:.,.U.G.S H.G.G.G.G.G.S.U.>.E pXpXpXpXpXpXpXpXpXpXpXpXpXpXpXpXpXpXpXpXpXpXpXpXpX",
"pXpXpXpXR I.pXo pXP.8XI.V B P.K._._.(.S.;.>.U >.F.G.G.,.:.=.1.1.1.U W.pXpXpXpXpXpXpXpXpXpXpXpXpXpXpXpXpXpXpXpXpXpXpXpXpX",
"pXpXpXpXpXpXpXpXpXA.pXpXpX8XuXE.4.Y.3.Z Y.).`.`.U.G.C pXpXpXpX= - pXpXpXpXpXpXpXpXpXpXpXpXpXpXpXpXpXpXpXpXpXpXpXpXpXpXpX",
"pXpXpXpXpXpXpXpXpXpXpXpXW tXR.b w pXT `.P.Y.(.Y.H.C pXpXpXpXpXpXpXpXpXpXpXpXpXpXpXpXpXpXpXpXpXpXpXpXpXpXpXpXpXpXpXpXpXpX",
"pXpXpXpXpXpXpXpXpXpXpXpXb N pXpXpXpXtXuXR.<.4.,.v pXpXpXpXpXpXpXpXpXpXpXpXpXpXpXpXpXpXpXpXpXpXpXpXpXpXpXpXpXpXpXpXpXpXpX",
"pXpXpXpXpXpXpXpXpXpXpXpXpXpXpXpXpXT rXR.b , pXpXpXpXpXpXpXpXpXpXpXpXpXpXpXpXpXpXpXpXpXpXpXpXpXpXpXpXpXpXpXpXpXpXpXpXpXpX",
"pXpXpXpXpXpXpXpXpXpXpXpXpXpXpXpXpXb K.pXpXpXpXpXpXpXpXpXpXpXpXpXpXpXpXpXpXpXpXpXpXpXpXpXpXpXpXpXpXpXpXpXpXpXpXpXpXpXpXpX"
};
