/* XPM */
static char *result[] = {
/* columns rows colors chars-per-pixel */
"63 64 228 2 ",
"   c #46240F",
".  c #4D270E",
"X  c #532A0E",
"o  c #462411",
"O  c #4D2712",
"+  c #4E2813",
"@  c #4D2D1B",
"#  c #512713",
"$  c #522A13",
"%  c #522E1A",
"&  c #592C14",
"*  c #4A331D",
"=  c #5B3215",
"-  c #54311B",
";  c #5B341C",
":  c #5F391F",
">  c #643416",
",  c #693617",
"<  c #65331A",
"1  c #69361B",
"2  c #66391C",
"3  c #6C3A1B",
"4  c #693916",
"5  c #733D1C",
"6  c #602F16",
"7  c #4C3324",
"8  c #4D382A",
"9  c #593825",
"0  c #4E3D35",
"q  c #4E2F20",
"w  c #643621",
"e  c #633A23",
"r  c #6D3D22",
"t  c #683F29",
"y  c #713E24",
"u  c #72401C",
"i  c #7B461F",
"p  c #6F421E",
"a  c #4D4339",
"s  c #5A4235",
"d  c #6D4124",
"f  c #64432D",
"g  c #6E442C",
"h  c #734525",
"j  c #754825",
"k  c #7E4B23",
"l  c #734629",
"z  c #754A2B",
"x  c #7B4B2A",
"c  c #7A472B",
"v  c #7D5026",
"b  c #7D502C",
"n  c #644331",
"m  c #684B39",
"M  c #734C34",
"N  c #7C4F35",
"B  c #724F3A",
"V  c #7C5133",
"C  c #7C543A",
"Z  c #4B4C4B",
"A  c #4D4743",
"S  c #5F4B41",
"D  c #524A45",
"F  c #59524C",
"G  c #4C4F50",
"H  c #595857",
"J  c #624C41",
"K  c #6A4E43",
"L  c #685247",
"P  c #7C5C44",
"I  c #765A4B",
"U  c #735C50",
"Y  c #665B54",
"T  c #7A6358",
"R  c #7E614B",
"E  c #655F62",
"W  c #656564",
"Q  c #696969",
"!  c #686767",
"~  c #7C6E65",
"^  c #776C66",
"/  c #7A716C",
"(  c #757575",
")  c #7B7A7B",
"_  c #834E23",
"`  c #804F2B",
"'  c #825026",
"]  c #885227",
"[  c #85532A",
"{  c #89542A",
"}  c #8E5C2A",
"|  c #8F5F26",
" . c #945E2C",
".. c #855839",
"X. c #96632D",
"o. c #9A642E",
"O. c #966532",
"+. c #9A6532",
"@. c #976932",
"#. c #9C6A34",
"$. c #9D6C3A",
"%. c #99693C",
"&. c #9F743F",
"*. c #A06B36",
"=. c #A16D3B",
"-. c #A3733D",
";. c #845D43",
":. c #895D45",
">. c #8C6644",
",. c #8D6B4D",
"<. c #89624C",
"1. c #946B49",
"2. c #9C7244",
"3. c #866B58",
"4. c #987456",
"5. c #907053",
"6. c #A37443",
"7. c #A57945",
"8. c #A57B4C",
"9. c #AB7C4B",
"0. c #A97946",
"q. c #A57D53",
"w. c #AB7F52",
"e. c #B17F4D",
"r. c #847368",
"t. c #897B74",
"y. c #977C6E",
"u. c #A27F63",
"i. c #9D815F",
"p. c #AD824E",
"a. c #B1844F",
"s. c #AD8452",
"d. c #AC8759",
"f. c #B28554",
"g. c #B38956",
"h. c #B48B5B",
"j. c #B98D5C",
"k. c #B48959",
"l. c #B6915E",
"z. c #B9915F",
"x. c #88817C",
"c. c #AB8663",
"v. c #AC8965",
"b. c #AD8B6B",
"n. c #A58266",
"m. c #B48E63",
"M. c #B38D6A",
"N. c #B78C63",
"B. c #B69261",
"V. c #BA9463",
"C. c #BE9966",
"Z. c #BC9569",
"A. c #BD9B6C",
"S. c #B3936B",
"D. c #BB9B74",
"F. c #BC9D7B",
"G. c #B69776",
"H. c #BFA279",
"J. c #C29B6B",
"K. c #C29966",
"L. c #C39F72",
"P. c #C2A26F",
"I. c #C5A474",
"U. c #CAA474",
"Y. c #C9A876",
"T. c #C4A579",
"R. c #CBAB7B",
"E. c #C8A879",
"W. c #D0AF7F",
"Q. c #7D7E80",
"!. c #7F8082",
"~. c #838384",
"^. c #8F8A85",
"/. c #8E8A89",
"(. c #898786",
"). c #918985",
"_. c #938B89",
"`. c #949494",
"'. c #9B9C97",
"]. c #9C9C9B",
"[. c #989694",
"{. c #94908E",
"}. c #A09D99",
"|. c #BB9B81",
" X c #9FA09F",
".X c #A7A19D",
"XX c #BFA083",
"oX c #A3A3A3",
"OX c #AAAAAA",
"+X c #BAB1AB",
"@X c #B3B4B4",
"#X c #BBBBBB",
"$X c #B5B7B8",
"%X c #B5A9A2",
"&X c #CBAE83",
"*X c #C8A986",
"=X c #D0AF88",
"-X c #D1AF82",
";X c #CDB284",
":X c #CEB48A",
">X c #CFB88A",
",X c #D2B385",
"<X c #D3B68A",
"1X c #D2B98B",
"2X c #D7B98B",
"3X c #C7B096",
"4X c #D5BA92",
"5X c #D7BC97",
"6X c #C5AD92",
"7X c #C1BEBC",
"8X c #D7C29C",
"9X c #C4C0BF",
"0X c #DACAA8",
"qX c #E2CFAF",
"wX c #C4C3C3",
"eX c #CDCECE",
"rX c #CCC7C5",
"tX c #D2CCC9",
"yX c #D8D2CE",
"uX c #D2D2D2",
"iX c #DBDBDB",
"pX c #D6D9D8",
"aX c #DFE0E0",
"sX c #E4E4E4",
"dX c #EEEEEE",
"fX c #FCFCFC",
"gX c #F3F4F3",
"hX c #EFEEF0",
/* pixels */
"< < < > < < < > > < < < < < > > > > < < < > > > > < < < < < 1 y > > < < > < < > 4 > > > > > > > > > > > 1 2 w V N <.:.2 > < < ",
"> 1 < 1 < < < < < < 6 < < < < < < > < < < < < < < < < < 2 w t 1 < w < 1 < < < < < 4 2 < < < 1 < < < < < 2 <.t :.< w < > 2 < < ",
"d >.>.>.>...> < < i k _ i _ k k i _ i _ k k i _ _ _ k k k [ i i k k i i i _ k k k i i i k _ i k i k _ k x 4.<.g M V >.>.>.>.N ",
"N L.U.<X<XD.< < > } +.o.o.o.+. .o.o.o.o.o.@.o.o. . .+.+.*.o.#.o.+.+.o.X.X.o.o.X.o.o.o.o.+.o.o.#.+.o.o. .6.5X;.t < 1.I.R.<X<Xv.",
"h *.f.:X<XD.2 < >  .a.X. .X.X.a.8.X.o.o.s.U.+.9.=.o.7.0.o.X.X.P.*.o.+.+.+.*.o.+.V.=.X.#.a.0.6.Y.=.+.#.+.O.4X:.< < ` o.C.<X<Xv.",
"x +.*.L.&XD.< > > } f.X.9.-Xf.9.-.+.s.9.+.#.+.4X-X+.7.0.&.I.s.X.p.7.@.A.<XU.X.+.h.#.V.2Xg.+.+.O.+.6.Z.K.;X>Xh > < _ o.0.I.&Xc.",
"h +.f.0.B.D.2 < < h.I.I.;X,X,XI.U.I.I.U.I.I.I.<X<X&XR.;X;X1X:XI.;XW.I.>X>X;XT.I.I.I.,X<X,XT.T.I.T.E.&X<X<X<Xh < < _ +.K.+.Y.c.",
"x +.*.#.z.D.2 < < 4.m.v.v.v.v.v.v.v.v.v.v.v.v.b.M.v.b.v.v.v.v.v.v.v.c.v.v.v.v.v.v.v.v.v.v.v.v.c.M.b.v.b.b.v.p > 1 _ +.6.+.U.c.",
"h =.+.+.B.D.1 < < < > 6 > > 6 > < 6 < > > 6 < r > 6 2 r > > > > = > > > < 6 > > 6 > 6 < 6 > 6 2 w > > > r 2 > < < _ +.+.+.R.v.",
"5 g.K.#.B.D.1 < < < < < < < < < < < < 6 , 1 y < < < < 1 y 1 > < 2 > < < < < < < < < > < < < 1 y 1 < < 1 < r 2 < < _ K.0.+.R.c.",
"5 o.#.=.V.D.1 < , l h h h l l h l c 1 < 2 N l h l l l h z N w < 1 l h l h j h j h l < < 2 M V z l h h h h l r r 1 ] *.+.o.R.c.",
"u 9.#.+.Z.D.1 < 3 T.&X&X&X&X&X&X&X&XN w d <X&X&X&X&X&X&X&X&XV 2 y &X&X&X&X&X&X&X&X-Xr < z :X&X;X&X&X&X&X&X*X3 y w _ w.+.o.E.c.",
"u 0.0.U.R.T.w < 3 &XE.U.<X<X<X<X<X<XC y 2 2XU.U.<X1X<X<X<X1Xz w h <XU.U.<X<X1X<X<X2Xd 1 V 1XY.U.<X1X<X<X<X<Xr < t { 9.s.U.;Xc.",
"u X.g.,X:XF.h w r R.+.X.m.<X<XT.<X2X..1 1 ,Xo.o.z.<X<XI.<X1Xl < h R. .*.C.<X<XT.<X2Xg y z E.o.o.A.<X<XT.<X=Xr < 2 { #.L.2X1Xc.",
"u +.=.C.T.D.w w ; >.} X.9.1XI.@.E.2XV < 2 Y.o.o.s.1XC.@.R.2Xh > t L. .o.k.<XJ.+.-X4Xz 1 z A.o.o.j.1XA.+.&X-Xr , < _ #.8.J.&Xc.",
"u o.s.X.B.F.6 L ).t.f _ p.<XA.+.C.1XV < < I.o.X.p.1XV.X.Z.2Xj < l J.+.o.k.>Xm.X.A.5Xd 1 z V.o.+.j.1Xz.o.I.=X3 < < _ *.s.#.R.c.",
"u -.Y.X.z.b.J .XeXrX[.; p.1XV.=.g.1XV < 2 J.X.X.w.4Xj.o.k.<Xl > g A.o.o.j.1Xg.+.B.5Xd 1 x B.o.X.j.1Xs.o.V.:Xd < < _ 9.V.*.W.v.",
"u X.X.X.l.5.~ pXfXfX#XJ g R C g M R e ; e C d h M ;.B r M I e ; : V d g M P B N M P w ; w B h r M I b X.h.:Xd > < _ o.X.+.&Xc.",
"u X.#.o.l.,.~ sXfXfXwXL _..X}.].].].].].}.'.'.'.].}.].].}.}.}.].'.].'.}.'.'.}.'.].'.].].].].].].'.[.m X.g.:Xd < < _ o.#.+.&XM.",
"u o.g.U.E.,.~ 7XfXgXOXJ yXfXfXfXfXfXfXfXfXfXfXfXfXfXfXfXfXfXfXfXfXfXfXfXfXfXfXfXfXfXfXfXfXfXfXfXfX#XU  .g.:Xp > < _ o.J.A.-XM.",
"u X.s.<X>X,.^ '.iX$X].L +XuXuXuXuXuXuXuXuXuXuXuXuXeXuXuXuXuXuXuXuXuXuXuXuXuXuXuXuXuXuXuXuXuXuXuXeXoXU  .f.,Xd > < _ o.J.<X4Xv.",
"u X.-.U.;X,./ '.pX$X}.J ^ ( ) ) ( ( ( ( ( ( ( ( ( ( ( ( ( ( ( ( ( ( ) ) ( ( ( ( ( ( ( ( ( ( ( ( ( /.U  .9.:Xr > < _ +.9.R.:Xc.",
"u X.o.@.B.,./ `.#X].].m / ) ) ~.!.Q.!.Q.Q.) Q.Q.Q.Q.Q.Q.Q.Q.Q.Q.) Q.~.!.) ~.Q.Q.!.) ) Q.!.Q.Q.) Q.`.T  .8.<X3 , , _ o.$.%.E.c.",
"u o.X.J.Y.,./ ( G Z /.L .X9X7X9X7X7X7X7X7X7X7X7X7X7X7X7X7X7X7X9XwX9X7X9X7X7X7X7X7X7X7X7X7X7X7X7X7X7XL  .7.,Xp > < _ *.$.H.;Xc.",
"u =.-.l.I.,.t.].W Q OXL .       o % + o o o           o o o o o % o             o o o o o o o o   o +  .-.<Xp < < { 9.6.V.-Xc.",
"u -.9.X.B.5.B tXwXrX%X@ # # + + # # % 9 @ + # # O O # # + + % ; + X # # + O # # # O O # # # O # O . & X.-.:Xr < r { 0.=. .E.c.",
"u o.=.W.1Xi.O 9 r.T @ X 2.8.| X.} H.c w r X. . .8.8.} } O.L.M w w O.}  .p.2.} X. .E.t < l { X. .s.2.o.o.$.:Xy r w _ +.9.,X>Xc.",
"u o.-.1X1XG.$ + O O # 3 9.7.o.o. .<X` < r =.o.o.f.9.X.X.#.<Xl < 5 #.X.+.h.0.o.X.+.4Xd < y o.X.o.B.-.o.X.#.;Xc 1 w _ +.j.<X1Xn.",
"u o.#.s.H.D.> & # X i o.9.=.o.o.O.;XN < < #.*.o.p.$.X.#.-.;Xl < 3 +.o.o.f.-.o.o.+.2Xd 1 u o.o.o.j.#.o.o.*.<Xy > < _ o.+.s.R.v.",
"u #.C.g.A.D.< < 1 +.o.o.9.$.o.o.o.&XN < < #.#.*.s.X.#.#.@.;Xl < 1 *.o.o.s.+.o.+.O.2Xd 1 3 o.X.o.f.#.o.o.-.&Xr > < ] -.s.J.E.v.",
"h $.-.+.B.D.1 > 1 o.X.o.0.#.o.X.+.-XN < , o.o.*.s.@.#.+.@.W.j > 3 o.o.+.e. .o.o.X.2Xd > p X.o.o.8.#.+.=.$.&Xy > < _ +.=.X.R.c.",
"x o.o.#.B.D.2 > 1 o.o.o.-.X.o.X.+.E.N < , X.o.o.7.-.o.o.o.;Xj 2 1 +.o.o.6.+.o.o.X.<Xd 2 2 X.#.X.-.@.*.*.#.&X5 , < _ o.#.@.E.c.",
"x +.J.2XA.D.2 > 3 o.o.o.#.o.O.o.+.*XN < 1 o. .*.6.#.*.X.X.&Xg < 5  .o.o.=.+.o.o.X.b.- + @ @ & w O.$.#.+.#.&Xy > < _ o.W.-XI.v.",
"5 *.j.E.B.D.w > 1  .o.o.o.o.o.o.+.L.N < 1 +.*. .o.o.#.#.@.R.j < 1 *.o.o.*. .o.+.3 * F x.oX].( a 9 x o.o.#.R.y > < _ +.J.K.E.c.",
"u X.*.#.B.D.2 > 3  .o.o.o.o.o.o.+.L.N < ..h.+.+.o.o.X.#.+.R.l > , *. .o.o.X.o.1 8 W oXfXfXfXsX].H 7 x +.+.&Xr > < _  .o.o.R.c.",
"5 k.J.=.V.D.2 > 3 o.o.o.o.o.+.o.*.L.` 6 :.q.9.o.o.o.o.o.o.E.h < 5  .o.o.o.o._ 7 W `.uXfXfXfXfX#X`.F % } +.R.r > < _ J.k.o.Y.c.",
"u +.*.o.V.F.2 < , o.o.o.o.o.=.6.+.L.4.:.l 8.%.o.o.o.o.o.o.U.l < 3 +.o.o.o.o.; a #X].wXfXfXfXfXOX].oX0 u o.R.5 > > _ #.o.o.R.c.",
"u X.-.g.V.L.r < 1  .o.o.X.$.d.q.2.L.y.t :.+.o.o.o.o.o.o.+.I.l < 1 +.o.o.o.X.q ) pX].`.eXhXsX#X].].pXH = X.I.y > < ] o.p.6.W.c.",
"u o.X.#.V.D.y 1 3  .o.o.o.+.8.8.=.XX;.;.1 o.o.*.o.o.o.o.+.L.h < 3 +.o.o.+.[ 8 ].uX`.uXuX X].].].`.aXQ -  .I.y < < _ +.*.+.R.M.",
"u o.o.o.B.D.w 5 5 o.o.o.*. .+.2.9.L.<.< , o.o.o.o.o.o.o.+.J.c < 1 +.o.o.o.{ 7 ].pXW fXfX X].].(.( iX! -  .J.3 > < _ X.#.w.5X6X",
"u #.K.X.z.D.w < 5 X.o.o.o.=.w.6.2.L.N < 1 o.+.o.o.o.o.o.*.K.h < 5 +.o.o.o. .@ / sX( ( ~.( ( Q G ].iXF - o.J.y > < _ 9.=XG.5XXX",
"u X.a.#.V.D.2 4 , X.o.o.+.6.8.q.w.N.` < 1 o.*.o.o.o.o.o.o.J.h < , +.o.o.o.+.; A $XuXQ Z G Z Z (.pX`.0 h o.V.r > 1 { G.*Xq.E.b.",
"u o.6.W.:XD.2 > 1 X.o.X.#.w.+.6.6.K.` < 3 o. .o.o.o.o.o.o.K.y < 5 +.o.o.+.+.` 9 H  XiX#X XoXrXtX(.D - } o.V.y > 1 4.L.D.;X8X3X",
"u o.0.<X>XD.< > 1 X.+.%.+.8.6.+. .j.N 6 ,  .*.o.o.o.o.o.o.K.h 1 1 +.o.o.+.+.2.6 8 Z H ) (.x.( H A * h X.+.h.r < w u.G.K.8XqX|.",
"u X.O.7.Z.G.2 > 3 X.9.q.w.-.*.o.o.h.V < , o.o.o.o.o.o.o.o.N.l < , +.o.o.+.*.+.y # 7 a Z G G Z a * . [ X.+.g.r < r b.v.#.XX8Xn.",
"u +.6.J.R.F.2 > 1 7.q.w.$.*.o.o.+.j.` > , o.o.o.o.o.o.o.o.j.z < 5 +.+.+.*.*.+. .. # # @ * * + # % $ +.X.+.g.r 1 r b.S.8.5X8Xv.",
"u +.J.<X>XG.1 > d %.p.$.+.+.o.X.X.k.N < 3 o.o.o.o.o.o.o.o.k.l < 1 +.+.*.+.o.o.o.4 + + + . X + + # x o.X.X.g.y < w u.D.&X8X0XG.",
"5 o.%.h.I.D.2 C M ,.%.+.o.+.o.#.X.f.` , , o.o.o.o.o.o.o.o.f.l < , o.=.+.+.o.o.o. .& + + # + + # 3 X.o.o.o.9.r < < 1.F.G.m.:XF.",
"u +.f.0.B.D.w U x.t.t [ +.o.o.+.=.a.V > 3 X.o.o.o.o.o.o.o.f.h < 3 $.+.@.+.o.X.+.o.2.% + $ + + <  .o.o.o.o.9.h < < [ M.5XM.=XM.",
"u +.o.+.m.XXr. XeX9X{.9 O.o.X.X.+.s.V 4 3 o.+.X.+.o.+.o.o.p.j 2 h +.+.+.o.o.o.+.o.e.d = = 3 [ @.X.o.o.o.o.0.r > < _ #.h.G.0X3X",
"u #.*.o.A.b.t.pXfXfX$Xm j v k x k ..M > = k ' x k x _ ' k ..e e < x k x v v x k k ..< & = v v k x k { o.X.0.3 < 1 _ *.%.O.=XG.",
"u g.H.#.*X5.t.sXfXfXwXS t.)._././.^._.{./.^.^./._./._./.).).{./.).)._././._.^./._._.^.^.).^.^./.).^.t X.X.8.d < < _ K.9.+.E.c.",
"u +.q.9.G.5.~ wXfXgXOXS rXdXdXdXdXdXdXdXgXdXdXdXhXdXhXdXdXhXdXdXhXhXdXdXdXdXdXdXhXhXdXdXdXhXdXdXdX@XU  .X.6.3 2 , _ X.+.+.&Xc.",
"p j.s.q.D.,.~ ].aX#X].S 7XsXsXsXsXsXsXsXsXsXsXsXsXsXsXsXsXsXsXsXsXsXsXsXsXsXsXsXsXsXsXsXsXsXsXsXsXOXU X.o.6.t < > ' j.+.$.R.c.",
"u 6.B.4X;X,.~ ].pX@X].J / ~.~.~.~.!.~.!.!.~.(.(.~.~.~.(.(.~.~.!.~.~.~.~.~.~.~.~.~.~.~.~.!.~.~.(.(.`.U  .+.-.d > < _ 7.g.-X,Xc.",
"h X.g.<X<X,.~ [.#X].}.J Y ! ! ! Q ! Q Q Q Q W ( Q Q ( Q Q Q ! Q ! Q Q Q Q ! ! Q ! ! Q Q Q Q Q W ( (.U X.#.-.d > < _ +.J.<X<Xc.",
"x o.+.k.I.1.~ ( Z Z /.L .X7X7X7X7X7X7X7X#X7X7X7X9XwX9X9X#X9X#X7X7X7X#X9X7X#X9X7X#X9X#X9X7X7X7X9X7XwXT +.X.$.r < < _ o.-.j.;Xv.",
"x #.B.o.B.,.x./.H W oXL t f f f f n f f n n n f B M f f n n n f f f f n f f f f f n f f f f f f f m 9 O.+.#.r > < _ -.f.o.Y.v.",
"i 6.z.o.B.,.J tXwXrX+X@ + + + + + + + . + + + : @ + ; @ # + # O + + + + + + + + + O + # + + + + - - X #.#.#.r < < _ -.e.X.R.d.",
"5 8.V.+.B.4.+ 9 r.3.@ $ k ' v ' ' k r 6 = [ ..' v v ' ..[ [ 1 & > k v ' ' v ' v ' ' 2 = > ' v [ { ' } o.#.$.r > < _ j.0.X.E.c.",
"5 +.+.B.I.G.& + + + # 2 +.+.o.o.o. .x < , =.*.o.o.o.o.o.*.=.h > 1 +.o.o.+.o.o.o.o.+.y < 5 X.*.*.o.o.o.o.o.+.l < > _ +.O.z.,Xc.",
"5 o.0.<X4XF.2 $ # # i +.+.X.o.o.o. .c < h +.o.o.o.o.o.o.+.=.h < 3 +.o.o.+.o.o.o.o.+.y < 5 +.=.o.o.o.o.o.o.+.y y 1 _ o.z.1X<Xc.",
"5 o.#.E.,XL.2 < 4 @.X.X.o.o.o.o.+.o.l y , +.+.+.X.o.o.o.+.+.c 3 1 +.o.o.+.o.o.X.o.o.y < h #.X.X.o.o.o.+.o.+.1 3 r ' X.7.R.<Xc.",
"1 5 5 5 h c h 1 , ' ] ] ] { ] ] ] ] c 1 , ] ] ] ] ] ] ] { ] , y y ] ] ] ] ] ] ] { { 1 r y ] ] ] ] ] ] ] ] { 1 1 1 h 5 i 3 h h "
};
