/* XPM */
static char *result[] = {
/* columns rows colors chars-per-pixel */
"46 64 184 2 ",
"   c black",
".  c #07080B",
"X  c #1B0909",
"o  c #171718",
"O  c #0B1011",
"+  c #3D0C0C",
"@  c #2E1514",
"#  c #191D29",
"$  c #1C212A",
"%  c #19242A",
"&  c #192033",
"*  c #212425",
"=  c #362724",
"-  c #232835",
";  c #212639",
":  c #252A3F",
">  c #282437",
",  c #3A2531",
"<  c #322435",
"1  c #2A3432",
"2  c #27303B",
"3  c #273237",
"4  c #33393E",
"5  c #2D3B2E",
"6  c #5C1112",
"7  c #500F10",
"8  c #7A1718",
"9  c #543E00",
"0  c #461E2E",
"q  c #671823",
"w  c #482626",
"e  c #4B3939",
"r  c #58363A",
"t  c #68242C",
"y  c #603333",
"u  c #7D3134",
"i  c #3E591D",
"p  c #3F661D",
"a  c #30432B",
"s  c #364D25",
"d  c #385624",
"f  c #354C34",
"g  c #466716",
"h  c #466A16",
"j  c #42681A",
"k  c #467516",
"l  c #6C5239",
"z  c #715D15",
"x  c #150A59",
"c  c #282E45",
"v  c #272C43",
"b  c #2A3048",
"n  c #2A3144",
"m  c #251A6C",
"M  c #09396A",
"N  c #00356B",
"B  c #3D386B",
"V  c #402C40",
"C  c #2D4043",
"Z  c #384040",
"A  c #34484E",
"S  c #385054",
"D  c #2C4258",
"F  c #3D4E72",
"G  c #3E517F",
"H  c #474042",
"J  c #58534B",
"K  c #535A5C",
"L  c #664542",
"P  c #784040",
"I  c #784D46",
"U  c #6D5456",
"Y  c #757440",
"T  c #585E61",
"R  c #5B6265",
"E  c #597870",
"W  c #61666A",
"Q  c #647D6B",
"!  c #73777D",
"~  c #6D6C79",
"^  c #8F0F17",
"/  c #840F10",
"(  c #9C0D13",
")  c #991D1E",
"_  c #80161E",
"`  c #AC0505",
"'  c #B4080B",
"]  c #BF0C0C",
"[  c #BC0609",
"{  c #B80F10",
"}  c #A61718",
"|  c #A51819",
" . c #B31112",
".. c #861F22",
"X. c #932425",
"o. c #CC0606",
"O. c #C50506",
"+. c #D90000",
"@. c #D40202",
"#. c #8C6700",
"$. c #896C2A",
"%. c #8B534B",
"&. c #925A53",
"*. c #90705D",
"=. c #9B6354",
"-. c #A06759",
";. c #88627D",
":. c #946764",
">. c #A56E63",
",. c #BA8900",
"<. c #A2801A",
"1. c #BF891B",
"2. c #B99826",
"3. c #A58731",
"4. c #E9AB00",
"5. c #D0AA2C",
"6. c #AD8060",
"7. c #B19273",
"8. c #A4974F",
"9. c #CA964D",
"0. c #DFA043",
"q. c #C98868",
"w. c #D19975",
"e. c #D8A078",
"r. c #190089",
"t. c #352190",
"y. c #301387",
"u. c #443597",
"i. c #0A4C8F",
"p. c #0159B3",
"a. c #0C5FB3",
"s. c #074DB6",
"d. c #1C6ABA",
"f. c #206DBB",
"g. c #416385",
"h. c #4D749C",
"j. c #7D7C92",
"k. c #6B6F8E",
"l. c #4178B0",
"z. c #002FCC",
"x. c #0025D2",
"c. c #357AC1",
"v. c #1350C4",
"b. c #4172D9",
"n. c #8C7A8A",
"m. c #7E838A",
"M. c #5C89B8",
"N. c #5A81A8",
"B. c #648EBC",
"V. c #6B91BD",
"C. c #7597BB",
"Z. c #6481A1",
"A. c #4488CC",
"S. c #5991D8",
"D. c #6DA5DD",
"F. c #7DADDD",
"G. c #73A8DD",
"H. c #7395C0",
"J. c #8A8B94",
"K. c #AD8487",
"L. c #AD8699",
"P. c #9E9EA8",
"I. c #A2A5AE",
"U. c #B2A0B8",
"Y. c #A586A6",
"T. c #DEAA85",
"R. c #C6A693",
"E. c #F2B58E",
"W. c #F1B792",
"Q. c #F2C6AB",
"!. c #F6C5A6",
"~. c #F8D0B8",
"^. c #E6C1AC",
"/. c #89AED6",
"(. c #85ADD6",
"). c #89B3DD",
"_. c #85B1DD",
"`. c #82A4C9",
"'. c #B7B0C8",
"]. c #C8C9D6",
"[. c #EDD7D0",
"{. c #D0D2E4",
"}. c #E8E8F8",
"|. c None",
/* pixels */
"|.|.|.|.|.|.|.|.|.|.|.|.|.b b b b b b b b b b b b b b b |.|.|.|.|.|.|.|.|.|.|.|.|.|.|.|.|.|.",
"|.|.|.|.|.|.|.|.|.|.|.|.|.b b b b b b b b b b c b b b b |.|.|.|.|.|.|.|.|.|.|.|.|.|.|.|.|.|.",
"|.|.|.|.|.|.|.|.    # b b b b c : : : v : : v : : : : v c b f k k |.|.|.|.|.|.|.|.|.|.|.|.|.",
"|.|.|.|.|.|.|.|.    # b b b c v ; ; ; ; ; ; ; ; ; ; ; ; c b f k k |.|.|.|.|.|.|.|.|.|.|.|.|.",
"|.|.|.|.|.|.|.|.    # b b b b v ; ; ; ; ; ; ; ; ; ; ; ; c c f k k |.|.|.|.|.|.|.|.|.|.|.|.|.",
"|.|.|.|.|.b b b ; ; : ; ; ; ; & ; ; ; ; ; ; ; ; ; ; ; ; j k k g j k k k |.|.|.|.|.|.|.|.|.|.",
"|.|.|.|.|.b b b ; ; ; ; ; ; ; ; ; ; ; ; ; ; ; ; ; ; ; ; p k k g g k k k |.|.|.|.|.|.|.|.|.|.",
"|.|.|.|.|.b b b ; ; ; ; ; ; ; ; ; ; ; ; ; ; ; ; ; ; ; ; p k h g g k k k |.|.|.|.|.|.|.|.|.|.",
"|.|.|.b b : ; ; ; ; ; ; ; ; ; ; ; ; ^ +.+.+.+.0 : 5 k k g g g g g h k k |.|.|.|.|.|.|.|.|.|.",
"|.|.|.b b v ; ; ; ; : & ; ; ; ; : & ^ +.+.+.+.0 & 5 k k h g g g g k k k |.|.|.|.|.|.|.|.|.|.",
"b b b v : ; ; ; ; ; q ^ ^ ^ ^ ^ ^ ^ ] +.O.q q < : 1 h h g g i 5 a a s a n b |.|.|.|.|.|.|.|.",
"b b b ; ; ; ; ; ; ; ^ +.+.+.+.+.+.+.+.+.' ; - ; & 1 g g g g s ; ; : & : b b b |.|.|.|.|.|.|.",
"b b b ; ; ; ; ; 0 0 ( +.+.+.+.+.+.+.+.+.' ; : & : 1 h h h g s ; ; 3 1 1 c b b |.|.|.|.|.|.|.",
"b b b ; ; ; ; ; +.+.+.+.+.+.+.+.+.+.+.+.' ; ; : ; 1 k k h h s ; - i g g 4 b b |.|.|.|.|.|.|.",
"b b b ; ; ; ; ; +.+.+.+.+.+.+.+.+.+.+.+.' ; & : & 1 k k h j s ; & i h g 4 c b |.|.|.|.|.|.|.",
"b b b ; ; q ^ ^ +.+.+.+.+.+.+.+.+.+.+.+.' ; 2 & : 3 a a j h d ; : 5 a a y t t | ) ) ) |.|.|.",
"b b b > > ^ +.+.+.+.+.+.+.+.+.+.+.+.+.+.' & : ; ; ; ; ; j k d ; ; ; ; ; ..) ) X.) ) ) ) |.|.",
"V V n , , ( +.+.+.+.+.+.+.+.+.+.+.+.+.+.[ 0 0 > ; ; ; ; d p s ; ; < , < ..) | | } } } | |.|.",
") ) ) ) ) { +.+.+.+.+.+.+.+.+.+.+.+.+.+.+.+.+.0 ; ; ; ; ; ; ; ; ; ..) ) ) )  .+.+.+.+.] ) ) ",
") ) ) ) ) O.+.+.+.+.+.+.+.+.+.+.+.+.+.+.+.+.+.0 ; ; ; ; ; ; ; ; & ..) ) ) )  .+.+.+.+.] ) ) ",
"+ + 7 ) ) }  . . . .o.+.+.+.+.+.+.+.+.+.+.+.+.( ^ ^ ^ ^ ^ ^ ..q t X.) )  .O.o.+.+. . ./ 7 + ",
"      ) ) ) ) ) ) ) ] +.+.+.+.+.+.+.+.+.+.+.+.+.+.+.+.+.+.+.{ ) ) ) ) ) o.+.@.+.+.) ) 6     ",
"      8 8 ..X.X.) ) { o.o.o.o.@.+.+.+.+.+.+.+.+.+.+.+.+.o.o.{ ) ) | | | o.+.+.o.o.8 8 7     ",
"|.|.|.    w P P ) ) ) ) ) ) ) ] +.+.+.+.+.+.+.+.+.+.+.+.} ) ) ) ) o.+.+.+.+.] ) )       |.|.",
"|.|.|.    w l P ) ) ) ) ) ) ) ] +.+.+.+.+.+.+.+.+.+.+.+.} ) ) ) ) o.+.+.+.+.O.X.)       |.|.",
"|.|.|.    w y y 8 8 ..) X.) ) { o.o.o.o.O.O.o.o.o.o.o.o.| ) ) ) ) ` ` ` o.o.' 8 8     |.|.|.",
"|.|.|.|.|.          w P I X.) ) ) ) ) ) ) ) ) ) ) ) ) ) ) ) ) ) ) X     8 ) 6     |.|.|.|.|.",
"|.|.|.|.|.          w P X.) ) ) ) ) ) ) ) ) ) ) ) ) ) ) ) ) ) ) ) X     8 ) 6     |.|.|.|.|.",
"|.|.|.    % C C C C # X o w , , , , , w r q.q.l e L q.q.L.Y.~ r e y y r @ X X |.|.|.|.|.|.|.",
"|.|.|.    3 S S S S %   . - - - - - - - H e.e.J Z J e.e.U.U.j.Z n P l P X     |.|.|.|.|.|.|.",
"|.|.|.    % C C S S - O O - - - - - 4 H U e.e.J Z J e.e.'.'.j.: 1 I %.%.@ X X |.|.|.|.|.|.|.",
"                S S S S A - - - - - *.e.e.e.e.J Z J e.e.[.}.J..   6.e.e.&.P P |.|.|.|.|.|.|.",
"                S S S S A - - - - - *.e.e.e.e.J n J e.e.[.}.J.    6.e.e.%.P P |.|.|.|.|.|.|.",
"|.|.|.|.|.# $ $ 2 2 2 2 2 - - - - - *.e.e.e.e.q.7.w.Q.Q.[.[.^.R.R.Q.Q.Q.w.q.q.|.|.|.|.|.|.|.",
"|.|.|.|.|.- - - - - - - - - - - - - *.e.e.e.e.e.e.T.~.~.~.~.~.~.~.~.~.~.T.e.e.|.|.|.|.|.|.|.",
"|.|.|.|.|.# $ $ - - - - - - - - - - *.e.e.e.e.e.e.T.~.~.~.~.~.~.~.~.~.~.T.e.e.|.|.|.|.|.|.|.",
"|.|.|.          - - - - - - - - - - *.e.e.e.e.e.e.T.~.~.~.~.~.~.~.~.~.~.T.e.e.|.|.|.|.|.|.|.",
"|.|.|.          - - - - - - - - - - *.e.e.e.e.e.e.T.~.~.~.~.~.~.~.~.~.~.T.e.e.|.|.|.|.|.|.|.",
"|.|.|.|.|.      C.C.C.C.Z.- - - ; > L %.-.e.e.e.e.e.T.T.Q.~.~.~.~.W.T.T.|.|.|.|.|.|.|.|.|.|.",
"|.|.|.|.|.      ).).).).C.- - - - ; r l %.e.e.e.e.e.e.e.Q.~.~.~.~.T.e.e.|.|.|.|.|.|.|.|.|.|.",
"|.|.|.|.|.      ).).).).H.- - - ; - r P %.e.e.e.e.e.e.e.Q.~.~.~.~.T.e.e.|.|.|.|.|.|.|.|.|.|.",
"|.|.|.|.|.      ).).).).(.C.C.B.B.M.V.V.H.H.`.:.%.-.W.W.>.&.>.|.|.|.|.|.|.|.|.|.|.|.|.|.|.|.",
"|.|.|.|.|.      ).).).).).).).F.D.D.D.D.D.D.D.U u &.W.W.&.P P |.|.|.|.|.|.|.|.|.|.|.|.|.|.|.",
"|.|.|.|.|.|.    F.F.).).).F.F.N.g.g.l.A.A.A.S.k.~ K.!.!.l w w |.|.|.|.|.|.|.|.|.|.|.|.|.|.|.",
"|.|.|.|.|.|.|.|.D.D.F.)._.D.D.D     N p.p.a.a.S.D./.~.~.=     |.|.|.|.|.|.|.|.|.|.|.|.|.|.|.",
"|.|.|.|.|.|.|.|.D.D.F.)._.D.D.D     N p.p.a.a.S.F.).~.~.=     |.|.|.|.|.|.|.|.|.|.|.|.|.|.|.",
"|.|.|.|.|.|.|.|.|.|.D.G.B.% % M i.i.p.p.a.a.a.f.f.f./.).3.,.,.|.|.|.|.|.|.|.|.|.|.|.|.|.|.|.",
"|.|.|.|.|.|.|.|.|.|.D.D.N.    M a.a.p.p.p.a.a.a.a.f.D.G.5.4.4.|.|.|.|.|.|.|.|.|.|.|.|.|.|.|.",
"|.|.|.|.|.|.|.|.|.|.|.D.h.    M a.a.a.p.p.a.p.v.s.v.b.b.7.8.8.|.|.|.|.|.|.|.|.|.|.|.|.|.|.|.",
"|.|.|.|.|.|.|.|.|.|.|.|.|.    M a.a.a.p.p.p.p.z.x.x.x.x.S.D.g..   |.|.|.|.|.|.|.|.|.|.|.|.|.",
"|.|.|.|.|.|.|.|.|.|.|.|.|.    M a.a.p.p.p.p.p.z.x.x.x.x.S.D.g.    |.|.|.|.|.|.|.|.|.|.|.|.|.",
"|.|.|.|.|.|.|.|.|.|.|.|.|.    z 2.2.E a.p.p.p.n.n.K.L.K.u.t.x     1 Z Z |.|.|.|.|.|.|.|.|.|.",
"|.|.|.|.|.|.|.|.|.|.|.|.|.    #.4.4.Q a.a.p.p.7.e.e.e.e.t.r.x     1 Z Z |.|.|.|.|.|.|.|.|.|.",
"|.|.|.|.|.|.|.|.|.|.|.|.*     9 #.#.Y Q Q E E 9.0.0.;.;.y.r.x o o ~ m.m.K |.|.|.|.|.|.|.|.|.",
"|.|.|.|.|.|.|.|.|.|.Z Z 1           #.4.4.4.4.4.4.1.r.r.r.r.m H 4 ].}.}.R Z Z |.|.|.|.|.|.|.",
"|.|.|.|.|.|.|.|.|.|.Z Z 1           #.4.4.4.4.4.4.1.r.r.r.r.m H f ].}.}.R Z Z |.|.|.|.|.|.|.",
"|.|.|.|.|.|.|.|.|.|.! J.~ # & & & & l 3.3.<.<.<.<.$.m m m m B W W {.}.}.R Z Z |.|.|.|.|.|.|.",
"|.|.|.|.|.|.|.|.Z Z I.}.].g.G g.G G G G F f Z Z Z Z Z Z Z f W P.P.{.}.}.R Z Z |.|.|.|.|.|.|.",
"|.|.|.|.|.|.|.|.Z Z I.}.].G G G u.g.g.T F Z Z Z Z Z Z Z Z Z W I.P.{.}.}.R Z Z |.|.|.|.|.|.|.",
"|.|.|.|.|.|.|.|.|.|.Z Z T }.}.'.P.P.R H n |.|.|.|.|.|.|.|.|.|.Z n H H Z |.|.|.|.|.|.|.|.|.|.",
"|.|.|.|.|.|.|.|.|.|.Z Z T }.}.'.P.P.R n Z |.|.|.|.|.|.|.|.|.|.Z Z Z Z Z |.|.|.|.|.|.|.|.|.|.",
"|.|.|.|.|.|.|.|.|.|.|.Z T I.I.J.! j.T f |.|.|.|.|.|.|.|.|.|.|.Z Z Z Z Z |.|.|.|.|.|.|.|.|.|.",
"|.|.|.|.|.|.|.|.|.|.|.|.|.Z n Z Z Z |.|.|.|.|.|.|.|.|.|.|.|.|.|.|.|.|.|.|.|.|.|.|.|.|.|.|.|.",
"|.|.|.|.|.|.|.|.|.|.|.|.|.Z Z Z Z Z |.|.|.|.|.|.|.|.|.|.|.|.|.|.|.|.|.|.|.|.|.|.|.|.|.|.|.|."
};
