/* XPM */
static char *result[] = {
/* columns rows colors chars-per-pixel */
"49 64 176 2 ",
"   c black",
".  c #040505",
"X  c #070808",
"o  c #0B0D0D",
"O  c #040018",
"+  c #05001B",
"@  c #0E1010",
"#  c #111313",
"$  c #101314",
"%  c #121515",
"&  c #12191B",
"*  c #121A1B",
"=  c #151818",
"-  c #141D1F",
";  c #181B1B",
":  c #2B2018",
">  c #040621",
",  c #00072A",
"<  c #08002B",
"1  c #001224",
"2  c #111123",
"3  c #111A23",
"4  c #0A0037",
"5  c #162022",
"6  c #192223",
"7  c #1C2020",
"8  c #182224",
"9  c #1B2628",
"0  c #1F2B2D",
"q  c #232828",
"w  c #252B2C",
"e  c #232D2E",
"r  c #212639",
"t  c #252A3F",
"y  c #3E2433",
"u  c #392434",
"i  c #223032",
"p  c #273031",
"a  c #273233",
"s  c #273537",
"d  c #2A3536",
"f  c #293638",
"g  c #2B383A",
"h  c #2D3B3D",
"j  c #333336",
"k  c #3B3031",
"l  c #38383C",
"z  c #450000",
"x  c #570000",
"c  c #651F29",
"v  c #522424",
"b  c #5C2425",
"n  c #51222E",
"m  c #563D2D",
"M  c #5F3C3E",
"N  c #6A2122",
"B  c #692129",
"V  c #6D252F",
"C  c #602B2C",
"Z  c #7D2020",
"A  c #0C044A",
"S  c #000D4C",
"D  c #0F0052",
"F  c #262C42",
"G  c #282E44",
"H  c #2F3E41",
"J  c #2A3048",
"K  c #3F3F43",
"L  c #0D0B60",
"P  c #14006E",
"I  c #0B1262",
"U  c #14077A",
"Y  c #00167E",
"T  c #2D4043",
"R  c #2E4042",
"E  c #304042",
"W  c #314346",
"Q  c #31464A",
"!  c #34484B",
"~  c #2C4258",
"^  c #374858",
"/  c #385054",
"(  c #344F6A",
")  c #3E517F",
"_  c #4B4B50",
"`  c #7C7151",
"'  c #5D5D63",
"]  c #5D796B",
"[  c #606366",
"{  c #627C6B",
"}  c #657D6B",
"|  c #820000",
" . c #8F0F17",
".. c #991D1E",
"X. c #B60000",
"o. c #BF0C0C",
"O. c #AC0D10",
"+. c #AD1415",
"@. c #A61718",
"#. c #A31819",
"$. c #B31112",
"%. c #B41111",
"&. c #811820",
"*. c #811F20",
"=. c #862729",
"-. c #C5090A",
";. c #D90000",
":. c #8C6700",
">. c #8B7D59",
",. c #76835D",
"<. c #96843E",
"1. c #BA9A24",
"2. c #BD9C24",
"3. c #A58733",
"4. c #E9AB00",
"5. c #918D48",
"6. c #B4A766",
"7. c #D89870",
"8. c #D89B73",
"9. c #D89E76",
"0. c #D8A078",
"q. c #E9C363",
"w. c #140A81",
"e. c #190089",
"r. c #001D8C",
"t. c #170C94",
"y. c #151299",
"u. c #3F2086",
"i. c #131EA4",
"p. c #00468F",
"a. c #235F9D",
"s. c #256596",
"d. c #0044BF",
"f. c #0058B3",
"g. c #0359B3",
"h. c #055BB3",
"j. c #085CB3",
"k. c #0A5EB3",
"l. c #0D5FB3",
"z. c #0E62B8",
"x. c #1667BB",
"c. c #1C6BBB",
"v. c #1D6CBD",
"b. c #206DBB",
"n. c #4D5D86",
"m. c #416385",
"M. c #64708F",
"N. c #7E7E86",
"B. c #5653AB",
"V. c #5654AC",
"C. c #5656AE",
"Z. c #5B63B5",
"A. c #0039C6",
"S. c #0025D2",
"D. c #163FD4",
"F. c #1A5EC5",
"G. c #2C77C4",
"H. c #5780A8",
"J. c #5784B1",
"K. c #3B81C9",
"L. c #4186CC",
"P. c #4789CC",
"I. c #5E9AD6",
"U. c #6091C2",
"Y. c #6DA5DD",
"T. c #73A8DD",
"R. c #78ABDD",
"E. c #7EADDD",
"W. c #8B8B95",
"Q. c #9E9EA8",
"!. c #C39B86",
"~. c #E8D095",
"^. c #89B3DD",
"/. c #BCBCC8",
"(. c #E8E8F8",
"). c None",
/* pixels */
").).).).).).).).).).).).).).).............J J J J J J J V ........).).).).).).).).).).).).).).).).",
").).).).).).).).).).).).).).).............J J J J J J J V ........).).).).).).).).).).).).).).).).",
").).).).).).).).).).).........%.o.o.o.o.o.t t G J J t t &.o.o.o.o.+...........).).).).).).).).).).",
").).).).).).).).).)...........o.;.;.;.;.;.r r F J J r r  .;.;.;.;.$...........).).).).).).).).).).",
").).).).).).).).).)...........o.;.;.;.;.;.r r F J J r r  .;.;.;.;.$...........).).).).).).).).).).",
").).).).).).).).....o.;.;.;.;.;.;.;.;.;.;.r r r r r r r  .;.;.;.;.;.;.;.;.;.;.....).).).).).).).).",
").).).).).).).).....o.;.;.;.;.;.;.;.;.;.;.r r r r r r r  .;.;.;.;.;.;.;.;.;.;.....).).).).).).).).",
").).).).).).).).....o.;.;.;.;.;.;.;.;.;.;.r r r r r r r  .;.;.;.;.;.;.;.;.;.;.....).).).).).).).).",
").).).).).).).).    | ;.;.;.;.;.;.;.;.;.;.r r r r r r r  .;.;.;.;.;.;.;.;.;.;.    ).).).).).).).).",
").).).).).).).).    | ;.;.;.;.;.;.;.;.;.;.r r r r r r r  .;.;.;.;.;.;.;.;.;.;.    ).).).).).).).).",
").).).).).).    | | X.;.;.;.;.;.;.;.;.;.;.r r r r r r r  .;.;.;.;.;.;.;.;.;.;.| | z     ).).).).).",
").).).).).      ;.;.;.;.;.;.;.;.;.;.;.;.;.r r r r r r r  .;.;.;.;.;.;.;.;.;.;.;.;.x     ).).).).).",
").).).).).      ;.;.;.;.;.;.;.;.;.;.;.;.;.r r r r r r r  .;.;.;.;.;.;.;.;.;.;.;.;.x     ).).).).).",
").).).).).      ;.;.;.;.;.;.;.;.;.;.;.;.;.r r r r r r r  .;.;.;.;.;.;.;.;.;.;.;.;.x     ).).).).).",
").).).).).      ;.;.;.;.;.;.;.;.;.;.;.;.;.r r r r r r r  .;.;.;.;.;.;.;.;.;.;.;.;.x     ).).).).).",
").).).).).      ;.;.;.;.;.;.;.;.;.;.;.;.;.B B y r r B B O.;.;.;.;.;.;.;.;.;.;.;.;.x     ).).).).).",
").).).).).      ;.;.;.;.;.;.;.;.;.;.;.;.;.....n r r ....o.;.;.;.;.;.;.;.;.;.;.;.;.x     ).).).).).",
").).).).).      ;.;.;.;.;.;.;.;.;.;.;.;.;.@.@.c u u @.@.-.;.;.;.;.;.;.;.;.;.;.;.;.x     ).).).).).",
").).).).).      ;.;.;.;.;.;.;.;.;.;.;.;.;.;.;.$.....;.;.;.;.;.;.;.;.;.;.;.;.;.;.;.x     ).).).).).",
").).).).).      ;.;.;.;.;.;.;.;.;.;.;.;.;.;.;.$.....;.;.;.;.;.;.;.;.;.;.;.;.;.;.;.x     ).).).).).",
").).).    8 i i $.$.$.$.$.;.;.;.;.;.;.;.;.;.;.$.....;.;.;.;.;.;.;.;.;.;.$.$.$.$.$.b i i     ).).).",
").).      i / / ..........;.;.;.;.;.;.;.;.;.;.$.....;.;.;.;.;.;.;.;.;.;...........M / /     ).).).",
").).      i / / ..........;.;.;.;.;.;.;.;.;.;.$.....;.;.;.;.;.;.;.;.;.;...........M / /     ).).).",
"    8 i i s g g v v Z ....$.$.$.$.$.$.$.$.$.$.#.....$.$.$.$.$.$.$.$.$.$.......v v k g g i i &     ",
"    i / / g q q q q N ........................................................q q q q q / / 5     ",
"    9 T T a q q p p C =.=.*.*.*.*.*.*.*.*.*.*.*.*.*.*.*.*.*.*.*.*.*.*.*.=.=.=.p p w q q T T *     ",
"          = q q / / / / / q q q q q q q q q q q q q q q q q q q q q q q / / / / / g q q           ",
"          = q q / / / / / q q q q q q q q q q q q q q q q q q q q q q q / / / / / g q q           ",
").).).).).R ! ! p p p p p q q q q q ! ! ! ! ! ! ! ! ! ! ! ! ! q q q q q p p p p p H ! ! ).).).).).",
").).).).)./ / / q q q q q q q q q q / / / / / / / / / / / / / q q q q q q q q q q E / / ).).).).).",
").).).).).R ! ! q q q q q q q q q q T T T / / / / / / / Q T T q q q q q q q q q q h ! ! ).).).).).",
").).      = q q q q q q q q q q q q       / / / / / / / 5     q q q q q q q q q q q q q     ).).).",
").).      = q q q q q q q q q q q q       / / / / / / / 5     q q q q q q q q q q q q q     ).).).",
").).      0 ! ! ! ! d q q q q % X X       p p W / / p p $     X X ; q q ! ! ! ! ! 6 X X     ).).).",
").).      i / / / / g q q q q @           q q E / / q q @         = q q / / / / / 5         ).).).",
").).).    i / / T T e 7 7 7 7 o     X X X q q f T T q q % X X     # 7 7 T T T T T -         ).).).",
").).).).).).).).                    q q q q q @     q q q q q                     ).).).).).).).).",
").).).).).).).).                    q q q q q @     q q q q q                     ).).).).).).).).",
").).).).).).).).~ ~ ~ ~ ~ ~ ~ 3     = = = = = # @ @ = = = = =                     ).).).).).).).).",
").).).).).      Y.Y.Y.Y.Y.Y.Y.~               = q q                           ).).).).).).).).).).",
").).).).).      Y.Y.Y.Y.Y.Y.Y.~               = q q                           ).).).).).).).).).).",
").).).i.i.w.P P !.!.Z.D.D.Y.Y.U.J.J.J.J.J.    . X X     ( J.J.J.J.a.p.p.      ).).).).).).).).).).",
").).i.i.i.t.e.e.7.7.B.S.S.Y.Y.Y.Y.Y.Y.Y.Y.              m.Y.Y.Y.Y.G.f.f.      ).).).).).).).).).).",
").).I I I U e.e.8.8.V.S.S.P.P.I.Y.Y.R.R.R.^ ^ ^ ^ ^ ^ ^ H.Y.Y.L.L.F.d.d.m m m ).).).).).).).).).).",
").).      D e.e.0.0.C.S.S.l.l.P.Y.Y.^.^.^.^.^.^.^.^.^.^.R.Y.Y.f.f.A.S.S.7.7.7.    ).).).).).).).).",
").).      D e.e.0.0.C.S.S.l.l.P.Y.Y.^.^.^.^.^.^.^.^.^.^.R.Y.Y.f.f.A.S.S.7.7.7.    ).).).).).).).).",
").).).).).O + + : : 2 , , g.g.z.x.x.T.T.T.^.^.^.^.^.T.T.K.x.x.1 1 r.S.S.9.9.9.    ).).).).).).).).",
").).).).).                f.f.f.f.f.Y.Y.Y.^.^.^.^.^.Y.Y.G.f.f.    Y S.S.0.0.0.    ).).).).).).).).",
").).).).).).              ] ] s.f.f.P.P.P.E.E.E.E.E.L.L.v.h.h.    S Y Y 0.0.0.4 4 L ).).).).).).).",
").).).).).).).).).).      4.4.] f.f.l.l.l.Y.Y.Y.Y.Y.f.f.j.l.l.          0.0.0.e.e.y.i.i.).).).).).",
").).).).).).).).).).      4.4.] f.f.l.l.l.Y.Y.Y.Y.Y.f.f.j.l.l.          0.0.0.e.e.y.i.i.).).).).).",
").).).).).).).).).).      [ [ <.1.1.l.l.l.x.x.c.b.b.k.k.,.2.2.N.N.j     u.u.u.e.e.A > > ).).).).).",
").).).).).).).).).).      ) ) 3.4.4.l.l.l.f.f.j.l.l.l.l.5.4.4.Q.Q.K     e.e.e.e.e.4     ).).).).).",
").).).).).).).).).).      ) ) ` 3.3.} } } ] ] { } } } } 6.q.q././._     D D D D D <     ).).).).).",
").).).).).).).).).).      ) ) ) ) ) 4.4.4.4.4.4.4.4.4.4.~.(.(.(.(.'               ).).).).).).).).",
").).).).).).).).).).      ) ) ) ) ) 4.4.4.4.4.4.4.4.4.4.~.(.(.(.(.'               ).).).).).).).).",
").).).).).).).).).).      M.M.n.) ) :.:.:.:.:.:.:.:.:.:.>.W.W.W.W.l               ).).).).).).).).",
").).).).).).).).).).      Q.Q.M.) )                                     ).).).).).).).).).).).).).",
").).).).).).).).).).      Q.Q.M.) )                                     ).).).).).).).).).).).).).",
").).).).).).).).).).      (.(.(.(.(.      ).).).).).).).).).).).).).).).).).).).).).).).).).).).).",
").).).).).).).).).).      (.(.(.(.(.      ).).).).).).).).).).).).).).).).).).).).).).).).).).).).",
").).).).).).).).).).).    W.W.W.W.W.      ).).).).).).).).).).).).).).).).).).).).).).).).).).).).",
").).).).).).).).).).).).).          ).).).).).).).).).).).).).).).).).).).).).).).).).).).).).).).",
").).).).).).).).).).).).).          ).).).).).).).).).).).).).).).).).).).).).).).).).).).).).).)."
};
