/* XPM */
static char *result[] = {
/* columns rows colors chars-per-pixel */
"51 64 243 2 ",
"   c #000000",
".  c #02010C",
"X  c #07090A",
"o  c #0A0B0C",
"O  c #0C0806",
"+  c #130906",
"@  c #03051B",
"#  c #0D1215",
"$  c #181819",
"%  c #10110F",
"&  c #290000",
"*  c #380808",
"=  c #271916",
"-  c #351919",
";  c #271D00",
":  c #342600",
">  c #3C2C00",
",  c #302910",
"<  c #050328",
"1  c #171C26",
"2  c #090335",
"3  c #00183A",
"4  c #1A2325",
"5  c #1D2735",
"6  c #29292A",
"7  c #3B2A22",
"8  c #2D3C2D",
"9  c #2D2436",
"0  c #242C35",
"q  c #212639",
"w  c #232939",
"e  c #2B2A33",
"r  c #3B2232",
"t  c #352638",
"y  c #253133",
"u  c #2A3432",
"i  c #293936",
"p  c #383B3B",
"a  c #2B1C20",
"s  c #500A0A",
"d  c #740101",
"f  c #7C161C",
"g  c #6D1111",
"h  c #4C1E2C",
"j  c #591B28",
"k  c #641925",
"l  c #6B1823",
"z  c #741A23",
"x  c #57262D",
"c  c #462634",
"v  c #5A3635",
"b  c #4C3231",
"n  c #6D2029",
"m  c #61212B",
"M  c #782628",
"N  c #693C3B",
"B  c #743436",
"V  c #4B3700",
"C  c #3D591E",
"Z  c #3E641E",
"A  c #354B26",
"S  c #31442A",
"D  c #344A27",
"F  c #395322",
"G  c #2F442C",
"H  c #4A5612",
"J  c #7E5C00",
"K  c #6A5004",
"L  c #466B16",
"P  c #41631A",
"I  c #436C19",
"U  c #467416",
"Y  c #6B4D34",
"T  c #6A572F",
"R  c #090853",
"E  c #032B55",
"W  c #282E44",
"Q  c #2A3646",
"!  c #393E43",
"~  c #313851",
"^  c #130168",
"/  c #09146A",
"(  c #120C76",
")  c #2E186C",
"_  c #053669",
"`  c #23135F",
"'  c #5C375B",
"]  c #2E4245",
"[  c #354549",
"{  c #354B56",
"}  c #334A56",
"|  c #344E6F",
" . c #154269",
".. c #474647",
"X. c #544845",
"o. c #5A524C",
"O. c #515356",
"+. c #674443",
"@. c #764845",
"#. c #68574D",
"$. c #7A5249",
"%. c #695754",
"&. c #7A675A",
"*. c #71715A",
"=. c #4E566A",
"-. c #546974",
";. c #706E6D",
":. c gray38",
">. c #8B0404",
",. c #940606",
"<. c #990D14",
"1. c #8A141A",
"2. c #9A1C1D",
"3. c #971619",
"4. c #AC0B0D",
"5. c #A90607",
"6. c #B50505",
"7. c #BC0202",
"8. c #B40909",
"9. c #BB0B0D",
"0. c #A40B11",
"q. c #A51415",
"w. c #AA1414",
"e. c #A31919",
"r. c #A61718",
"t. c #B21212",
"y. c #BA0E11",
"u. c #8A1E21",
"i. c #911E20",
"p. c #8E2B2D",
"a. c #B32932",
"s. c #A41C20",
"d. c #CC0405",
"f. c #C50606",
"g. c #D40202",
"h. c #D90000",
"j. c #8D6901",
"k. c #8C7637",
"l. c #814C48",
"z. c #86584B",
"x. c #915C51",
"c. c #83764A",
"v. c #886D5B",
"b. c #966757",
"n. c #8E7455",
"m. c #A9745D",
"M. c #8E706C",
"N. c #A77C62",
"B. c #AB776C",
"V. c #855D7B",
"C. c #6D836F",
"Z. c #AF8F2B",
"A. c #A88828",
"S. c #D79E00",
"D. c #C39000",
"F. c #D7A30E",
"G. c #938847",
"H. c #8B854D",
"J. c #958373",
"K. c #AB8469",
"L. c #B88868",
"P. c #B78879",
"I. c #A78A7B",
"U. c #B59F4E",
"Y. c #CFB455",
"T. c #C5A84E",
"R. c #C89574",
"E. c #DA9D75",
"W. c #D39B76",
"Q. c #C48D6D",
"!. c #DAA27B",
"~. c #E3A57E",
"^. c #190288",
"/. c #131A94",
"(. c #0B178A",
"). c #311487",
"_. c #0B27AE",
"`. c #182897",
"'. c #104D8D",
"]. c #0A5EB3",
"[. c #0359B5",
"{. c #0752AE",
"}. c #3441BB",
"|. c #1364B6",
" X c #1A68B9",
".X c #0E60B5",
"XX c #2A70B9",
"oX c #285991",
"OX c #695283",
"+X c #4B6E8F",
"@X c #77738D",
"#X c #5579A5",
"$X c #565E9F",
"%X c #0B31C8",
"&X c #1353D1",
"*X c #2E51CE",
"=X c #1E64C3",
"-X c #256CC7",
";X c #3578CA",
":X c #0C4AE8",
">X c #3367E3",
",X c #5A3783",
"<X c #815A80",
"1X c #846C97",
"2X c #8B7397",
"3X c #A7788D",
"4X c #708894",
"5X c #6C89AC",
"6X c #5A89BC",
"7X c #4A88C8",
"8X c #578DC6",
"9X c #568FD3",
"0X c #6B9ACF",
"qX c #72A2D6",
"wX c #3E81CE",
"eX c #8B8B95",
"rX c #B1978E",
"tX c #999AA6",
"yX c #9097AE",
"uX c #98A8B6",
"iX c #B1B2AF",
"pX c #A09FA9",
"aX c #C59A85",
"sX c #D19E80",
"dX c #DDA987",
"fX c #D5B193",
"gX c #E6AB86",
"hX c #E9B899",
"jX c #F2B48F",
"kX c #D4B5A4",
"lX c #E5BCA5",
"zX c #DAC4B6",
"xX c #F2C7AC",
"cX c #F6CDB5",
"vX c #F8D0B8",
"bX c #E7C7B3",
"nX c #88ADD2",
"mX c #B9BAC8",
"MX c #ADAFC7",
"NX c #A7C0D6",
"BX c #CAC9D7",
"VX c #E1DDE2",
"CX c None",
/* pixels */
"CXCXCXCXCXCXCXCXCXCXCXCXCXCXCXCX2.2.2.2.i.m c ~ W ~ W W c v u.2.2.2.2.CXCXCXCXCXCXCXCXCXCXCXCXCXCXCXCX",
"CXCXCXCXCXCXCXCXCXCXCXCXCXCXCXCXe.e.2.e.2.m r W W W W W W x 2.s.e.s.e.CXCXCXCXCXCXCXCXCXCXCXCXCXCXCXCX",
"CXCXCXCXCXCXCXCXCXCXCXCXCXCXCXCXw.t.t.t.s.l c W W W W W t m e.8.t.t.t.CXCXCXCXCXCXCXCXCXCXCXCXCXCXCXCX",
"CXCXCXCXCXCXCXCXCXCXCXCX2.2.2.2.y.g.g.g.f.u.c W W W W W r l 9.g.d.d.y.e.2.2.2.2.CXCXCXCXCXCXCXCXCXCXCX",
"CXCXCXCXCXCXCXCXCXCXCXr.w.t.t.t.f.h.f.4.1.j r q W W W q 9 j f 0.f.g.f.y.t.w.w.t.r.CXCXCXCXCXCXCXCXCXCX",
"CXCXCXCXCXCXCXCXCX2.e.t.f.d.d.d.g.g.8.f h r 9 q 5 W q q 9 9 h f w.d.g.d.d.d.f.f.r.2.CXCXCXCXCXCXCXCXCX",
"CXCXCXCXCXCXCXCXCX2.e.t.g.g.g.g.h.d.5.l q q 9 q q q q q q q 9 j <.d.h.h.g.g.g.d.t.2.2.CXCXCXCXCXCXCXCX",
"CXCXCXCXCXCXCXCXCX2.e.t.d.h.h.h.0.f k r q u S S 8 S S A S 8 w r j z r.d.h.g.g.d.t.2.i.CXCXCXCXCXCXCXCX",
"CXCXCXCXCXCXCXCXCXs.s.y.g.g.g.d.f 5 q 5 0 A P P L L P L P F u q q q l 9.d.g.h.d.t.2.2.CXCXCXCXCXCXCXCX",
"CXCXCXCXCXCXCXCXCXr.r.f.g.d.9.t.l q q u 8 F P L L L L L P F 8 u q q j <.8.d.g.d.y.q.e.CXCXCXCXCXCXCXCX",
"CXCXCXCXCXCX2.2.e.f.f.d.h.6.1.k r q u 8 F P I U L L U U I P C S 8 q r j f 0.h.h.d.f.t.r.2.CXCXCXCXCXCX",
"CXCXCXCXCXCX2.2.e.d.g.h.h.0.k 9 0 u 8 C L L U U U U U U U U L C S u 9 9 h <.h.h.h.g.9.r.2.CXCXCXCXCXCX",
"CXCXCXCXCXCX2.2.e.d.h.h.h.0.k 9 8 F C P U U U U U U U U U U U P C F 8 e x <.h.h.h.g.9.r.2.CXCXCXCXCXCX",
"CXCXCXCXCXCX2.2.e.g.h.h.h.0.k 9 S P P I U U U U U U U U U U U U P P A e h <.h.h.h.g.y.w.2.CXCXCXCXCXCX",
"CXCXCXCXCXCXf f 3.d.h.h.h.0.k 9 S L L U U U U U U Z U U U U U U L L A e h <.h.h.h.d.4.3.f CXCXCXCXCXCX",
"CXCXCXCXCXCX* * s 7.h.h.h.0.k 9 D U U U U U U I F D D I L U U U U L F e h <.h.h.h.d.>.s * CXCXCXCXCXCX",
"CXCXCXCXCXCX+ + * 7.h.h.h.0.k 9 A U U U U L L P A 8 8 P L L U U U U F e h <.h.h.h.f.d s + CXCXCXCXCXCX",
"CXCXCXCXCXCX    + 6.h.h.h.0.k 9 G Z Z I U P P F G y 0 A C Z L L P Z D e h <.h.h.h.f.d &   CXCXCXCXCXCX",
"CXCXCX          & 6.h.h.h.0.k 9 q y 8 F P A u w w w w 0 u S P C G y q e h <.h.h.h.f.d &         CXCXCX",
"CXCXCX# o o     & 6.h.h.d.0.l c 9 q u D C S u q 0 y y 0 0 8 C A 8 q 9 r x <.d.g.g.f.d &   o X # CXCXCX",
"CXCXX 4 4 4 .   & 6.g.d.f.3.u.x r 0 0 8 S 8 0 q y G G y w u S G u w t x n 3.y.f.d.f.d & X $ 4 # o CXCX",
"CX  X y ] ] o   & 7.d.9.s.3.3.2.x q q q q q q 0 D Z Z y q q q 5 q q h u.2.2.2.w.f.f.d & X i ] 5 o   CX",
"CX  X y [ [ 4 1 = d >.,.q.q.q.q.z x c 9 q q q 0 G D A u q q w 9 r c z 3.q.q.q.<.,.d s - 4 ] G y o   CX",
"CX  X y ] } i i e * s d 5.8.8.8.3.z m r q q q q y i 8 w q q w t x n 3.8.8.6.5.,.d s - e Q } ] y o   CX",
"CX  o y ] { { { G # + s 5.7.7.7.0.2.M h 0 q q q q q w q 0 q q c l i.0.7.7.7.6.,.s   4 G { { ] y X   CX",
"CX    # $ u n.J.v.$ + * M 2.8.7.6.4.3.1.n n l n n n n n n n l 1.3.4.6.7.8.e.u.l * + b &.M.G 4 # .   CX",
"CX        = L.!.K., + - N p.2.8.7.7.6.w.2.2.3.2.2.2.2.2.2.2.2.q.8.7.7.9.q.p.Y v - $ Y N.L.7 +       CX",
"CXCX      ; K.E.L.b = h N B i.3.8.7.6.4.q.q.q.q.w.q.q.q.q.q.q.4.8.7.8.w.2.M N v 7 - z.N.L.b %       CX",
"CXCXCX    = L.W.Q.Y b v ..v B p.e.f.7.6.8.8.6.6.6.6.6.6.8.8.8.6.7.9.r.p.B N b ..v N b.L.L.7 %   CXCXCX",
"CXCXCX    = K.R.Q.l.@.+...X.+.N p.9.y.8.6.6.5.6.6.6.6.5.5.6.8.8.y.y.s.B +.X...X.N l.b.L.K.7 +   CXCXCX",
"CXCXCX    $ n.K.N.@.@.@.#.%.+.Y p.a.a.s.<.,.>.>.,.,.4.,.>.,.3.2.a.a.p.@.+.#.#.#.@.@.v.K.n.7 O   CXCXCX",
"CXCXCX    % O.:.%.@.@.x.N.b.&...V.3X3X@.x - * * k M M * * * x @.V.3XV.X.#.n.K.m.x.Y #.%.O.$ X   CXCXCX",
"CXCXCX    o Q [ { +.$.b.R.K.v.o.2XMXtX-.u 8 6 7 Y l.$.b 6 6 u O.eXMXeX&.&.K.!.L.x.+.X.[ ! # O   CXCXCX",
"CXCXCX    o y Q ! ..%.v.R.R.K.N.iXBXiX=.a X.&.M.I.rXP.J.v.o.6 O.tXBXiXJ.B.L.!.L.v.X.! ! y # .   CXCXCX",
"CXCXCX    X 5 0 W [ =.v.R.W.W.Q.bXVXkX:.$ #.I.kXkXlXlXfXrXv.$ O.tXVXbXaXR.E.W.I.*.{ ! p 4 o     CXCXCX",
"CXCXCXCX  X $ 1 4 y G T K.L.Q.E.cXVXBXJ.#.I.kXvXvXcXvXcXbXrX%.M.kXVXcXdXW.Q.N.n.o.y 4 $ $ X X CXCXCXCX",
"CXCXCXCXCXCX        + - N x.L.W.hXvXvXvXvXvXvXvXvXvXvXvXvXvXvXvXvXvXhX!.Q.b.B v =         CXCXCXCXCXCX",
"CXCXCXCXCXCX        + = x $.b.Q.gXxXxXcXvXvXvXvXcXxXxXcXvXvXvXcXcXxXfXQ.m.z.v x =         CXCXCXCXCXCX",
"CXCXCXCXCXCXCXCXCXCXo = - b @.b.R.gXhXxXvXvXvXcXxXhXhXcXvXvXvXxXhXjXR.m.x.v - - $ CXCXCXCXCXCXCXCXCXCX",
"CXCXCXCXCXCXCXCXCXCXCXCX. = x B m.W.dXhXcXcXvXxXhXgXdXxXvXvXcXhXgXE.m.l.v =     CXCXCXCXCXCXCXCXCXCXCX",
"CXCXCXCXCXCXCXCXCXCXCX5 } | =.@X&.z.b.K.aXdXfXhXgX!.!.hXhXfXaXP.b.$.&.;.-.=.~ ~ } CXCXCXCXCXCXCXCXCXCX",
"CXCXCXCXCXCXCXCXCX  $ ~ +X#X5X6X=.7 b #.B.P.sXgX~.!.E.~.dXR.B.l.v b :.#X5X#X#X+X| [ CXCXCXCXCXCXCXCXCX",
"CXCXCXCXCXCXCXCXCXO 1 ~ 8X0XqXqX| # = b l.m.Q.W.E.E.W.!.Q.B.z.v = + } 8X0XqXqX6X-.....CXCXCXCXCXCXCXCX",
"CXCXCXCXCXCX    = z.M.OX*X&X=X=X{. .oX$X5XtXaXE.~.gX~.!.R.rX5X#XoX'.{. X=X&X*X}.@XN.&.o...CXCXCXCXCXCX",
"CXCXCXCXCXCX    = m.R.1X%X%X_.{.].|.XX9XqXpXaXE.gXjXjX!.W.rXqX9X;X|.].[.{.%X%X}.1XQ.b.o.! CXCXCXCXCXCX",
"CXCXCXCXCXCX. . - m.rX1X%X%X[.{.{..X X7X0XpXrXE.gXjXjX!.rXpXqX7XXX|.{.{.[._.%X}.2XQ.M.' ~ CXCXCXCXCXCX",
"CXCXCXCX_./.^ ^ ) P.rX1X%X_.E 3 _ .X|. X-X6X0XuXiXzXbXnXqX5X;X X X|._ E E _.%X*X2XR.;.' ( /.`.CXCXCXCX",
"CXCXCX(././.^.^.).B.3X@X_.(.R . _ .X]..X|.;X9XqXiXzXbXqX9X7X|.].]..X_ < 2 ( _.`.<XP.OX).^./././.CXCXCX",
"CXCXCX/ ( / ^.^.).<XV.OX(./ < . E ].].].].-XwX9XMXkXfX9XwX;X=X].].]._ @ < R (.`.OX1X' ).^.( ( / CXCXCX",
"CXCXCX@ @ < ^ ^.^.).) ) 2 @ .   E ].].].[.&X:X&X@XU.T.*X:X:X&X].[.]._ # X o < 2 ) ).).^.( 2 < @ CXCXCX",
"CXCXCXCX  @ ^ ^ ^ ^ ^ 2 .   ; : ] ].]. X-X&X:X:X-.C.G.*X:X&X X X.X]. ., ; % . @ R ^ ^ ^ ^ @ . CXCXCXCX",
"CXCXCXCXCXCX2 2 2 2 < <   ; K j.-.|. X7X9X;X=X&XoX+X-.&X=X;X8X7XXX.X-.J K :   . @ < 2 2 2 @ CXCXCXCXCX",
"CXCXCXCXCXCX. . . . . .   > j.D.c.|.XX8XnX7X X]..X|.|.].|.wXnX0XwX.XC.D.j.K     O . . . . CXCXCXCXCXCX",
"CXCXCXCXCXCXCX            , T k.C.C.C.4X9X8X7X6X7X7X8X8X7X7X7X6X4XC.H.*.T 7             CXCXCXCXCXCXCX",
"CXCXCXCXCXCXCXCXCXCXCXCX  1 Q | A.F.A.C. X8XqXNXMXNXNXNXnX0XXX-.G.S.A.=.~ 1     CXCXCXCXCXCXCXCXCXCXCX",
"CXCXCXCXCXCXCXCXCXCXCXCX  1 ~ +XC.Z.A.C.+X4XuXiXiXiXiXiXiX4X-.C.G.Z.H.-.=.q     CXCXCXCXCXCXCXCXCXCXCX",
"CXCXCXCXCXCXCXCXCXCXCXCX  6 =.@XM.*.H.H.G.U.T.Y.Y.Y.Y.Y.Y.U.G.G.H.*.;.4X-.6     CXCXCXCXCXCXCXCXCXCXCX",
"CXCXCXCXCXCXCXCXCXCXCXCX  e :.tX@X+X;.A.S.S.S.S.S.S.S.S.S.S.S.Z.c.-.@XtX2Xp     CXCXCXCXCXCXCXCXCXCXCX",
"CXCXCXCXCXCXCXCXCXCXCXCX  p @XiXMXyXeXc.J J J J J J J J J J J &.M.tXuXmXeX..    CXCXCXCXCXCXCXCXCXCXCX",
"CXCXCXCXCXCXCXCXCXCXCXCX  [ eXBXBXmXtX#.: : : : : : : : : : : Y eXNXBXBXpXO.    CXCXCXCXCXCXCXCXCXCXCX",
"CXCXCXCXCXCXCXCXCXCXCXCX  ..eXmXBXNXpXo.                      ! eXmXBXmXtXO.    CXCXCXCXCXCXCXCXCXCXCX",
"CXCXCXCXCXCXCXCXCXCXCXCXCXCX6 6 6 6 6 CXCXCXCXCXCXCXCXCXCXCXCXCX6 6 6 6 e CXCXCXCXCXCXCXCXCXCXCXCXCXCX",
"CXCXCXCXCXCXCXCXCXCXCXCXCXCX          CXCXCXCXCXCXCXCXCXCXCXCXCX          CXCXCXCXCXCXCXCXCXCXCXCXCXCX",
"CXCXCXCXCXCXCXCXCXCXCXCXCXCX          CXCXCXCXCXCXCXCXCXCXCXCXCX          CXCXCXCXCXCXCXCXCXCXCXCXCXCX"
};
