/* XPM */
static char *result[] = {
/* columns rows colors chars-per-pixel */
"46 64 182 2 ",
"   c black",
".  c #090B0D",
"X  c #07080B",
"o  c #1F0606",
"O  c #180D0D",
"+  c #0B1011",
"@  c #171718",
"#  c #3D0C0C",
"$  c #001224",
"%  c #151820",
"&  c #1C202A",
"*  c #16212C",
"=  c #222225",
"-  c #232835",
";  c #212639",
":  c #252A3F",
">  c #2A2C33",
",  c #3B2531",
"<  c #372534",
"1  c #27303B",
"2  c #283234",
"3  c #32302C",
"4  c #500F10",
"5  c #5C1112",
"6  c #7A1719",
"7  c #7A1819",
"8  c #461E2E",
"9  c #5C1A27",
"0  c #661823",
"q  c #482525",
"w  c #58222D",
"e  c #4B3939",
"r  c #563531",
"t  c #6B232C",
"y  c #603333",
"u  c #7A3132",
"i  c #3F5B1D",
"p  c #3D571E",
"a  c #3F661D",
"s  c #30432B",
"d  c #364D25",
"f  c #385426",
"g  c #354C34",
"h  c #2E4031",
"j  c #6A571A",
"k  c #466716",
"l  c #466B16",
"z  c #43681A",
"x  c #467516",
"c  c #7D661B",
"v  c #6C5134",
"b  c #272D44",
"n  c #2A3048",
"m  c #25314C",
"M  c #3F3F43",
"N  c #14006E",
"B  c #00167E",
"V  c #09396A",
"C  c #402C40",
"Z  c #2D4044",
"A  c #384040",
"S  c #34494E",
"D  c #385054",
"F  c #2C4258",
"G  c #324166",
"H  c #3C4A66",
"J  c #3E517F",
"K  c #474042",
"L  c #784040",
"P  c #784D46",
"I  c #6B4040",
"U  c #465C77",
"Y  c #4C6078",
"T  c #51696F",
"R  c #616367",
"E  c #74687F",
"W  c #657D6B",
"Q  c #70517F",
"!  c #8F0F17",
"~  c #840F10",
"^  c #81141D",
"/  c #991D1E",
"(  c #9E0C12",
")  c #AB0606",
"_  c #BE0C0C",
"`  c #B60709",
"'  c #B80F10",
"]  c #A61718",
"[  c #A31819",
"{  c #A81617",
"}  c #B31112",
"|  c #861F22",
" . c #932324",
".. c #8C2B2C",
"X. c #CC0606",
"o. c #D90000",
"O. c #D40202",
"+. c #8C6700",
"@. c #8B534B",
"#. c #925851",
"$. c #B1755C",
"%. c #87647D",
"&. c #B27A62",
"*. c #896C44",
"=. c #BA8900",
"-. c #BF891B",
";. c #9A833C",
":. c #B99826",
">. c #A58733",
",. c #E9AB00",
"<. c #D0AA2C",
"1. c #AD8060",
"2. c #B88D6D",
"3. c #B4886B",
"4. c #AD8B7D",
"5. c #B2817C",
"6. c #A0A270",
"7. c #A6984C",
"8. c #C88A6A",
"9. c #D79B73",
"0. c #C9916F",
"q. c #D8A078",
"w. c #190089",
"e. c #141291",
"r. c #094D93",
"t. c #374181",
"y. c #044BBC",
"u. c #0058B3",
"i. c #0C5FB3",
"p. c #0953B9",
"a. c #206DBB",
"s. c #1162B5",
"d. c #416385",
"f. c #526B85",
"g. c #4C729D",
"h. c #537498",
"j. c #64708F",
"k. c #7D7D85",
"l. c #7D7C92",
"z. c #615D91",
"x. c #0025D2",
"c. c #367ACA",
"v. c #5483B7",
"b. c #5A81A8",
"n. c #6F91BE",
"m. c #7597BB",
"M. c #6287AE",
"N. c #4387CC",
"B. c #5896D5",
"V. c #6DA5DD",
"C. c #7CACDD",
"Z. c #73A7DA",
"A. c #7DA2C9",
"S. c #8B8B95",
"D. c #94949E",
"F. c #AD8487",
"G. c #AA9298",
"H. c #8B8FA0",
"J. c #9E9EA8",
"K. c #A586A6",
"L. c #B0A1AC",
"P. c #C89888",
"I. c #DEA984",
"U. c #DEA283",
"Y. c #CFA996",
"T. c #EABD9E",
"R. c #F8BA94",
"E. c #E4AD8A",
"W. c #DCC7BF",
"Q. c #F2C6AB",
"!. c #F6C5A6",
"~. c #F8D0B8",
"^. c #E6C1AC",
"/. c #86AED8",
"(. c #89B3DD",
"). c #84B1DD",
"_. c #BCBCC8",
"`. c #BABAC6",
"'. c #B3A9C9",
"]. c #EDD7D0",
"[. c #E8E8F8",
"{. c None",
/* pixels */
"{.{.{.{.{.{.{.{.{.{.{.{.{.{.{.{.{.{.n n n n n n n n n n n n n n n {.{.{.{.{.{.{.{.{.{.{.{.{.",
"{.{.{.{.{.{.{.{.{.{.{.{.{.{.{.{.{.{.n n n n n n n n n n n n n n n {.{.{.{.{.{.{.{.{.{.{.{.{.",
"{.{.{.{.{.{.{.{.{.{.{.{.{.x x g n b : b : : : : : : b : : : b n n n n n .   {.{.{.{.{.{.{.{.",
"{.{.{.{.{.{.{.{.{.{.{.{.{.x x g n b ; ; ; ; ; ; ; ; ; ; ; ; : n n n n n .     {.{.{.{.{.{.{.",
"{.{.{.{.{.{.{.{.{.{.{.{.{.x x g m b ; ; ; ; ; ; ; ; ; ; ; ; : b n n n n .     {.{.{.{.{.{.{.",
"{.{.{.{.{.{.{.{.{.{.x x x k k x x a ; ; ; ; ; ; ; ; ; ; ; ; ; ; ; ; ; ; ; ; b n n {.{.{.{.{.",
"{.{.{.{.{.{.{.{.{.{.x x x k k l x a ; ; ; ; ; ; ; ; ; ; ; ; ; ; ; ; ; ; ; ; : b b {.{.{.{.{.",
"{.{.{.{.{.{.{.{.{.{.x x x k k l x z f f s ; ; 6 ! ! ! ! < ; ; ; ; ; ; ; ; ; ; b b n n {.{.{.",
"{.{.{.{.{.{.{.{.{.{.x x x k k k k l x x a ; ; ` o.o.o.o.8 ; ; ; ; ; ; ; ; ; ; ; ; n n n {.{.",
"{.{.{.{.{.{.{.{.{.{.x x x k k k k l x x a ; ; ` o.o.o.o.8 ; ; ; ; ; ; ; ; ; ; ; ; n n n {.{.",
"{.{.{.{.{.{.{.{.n n h s s s s p k l l l a ; ; 9 0 ^ o.o.( ! ! ! ! ! ! ! , ; ; ; ; b : b n n ",
"{.{.{.{.{.{.{.{.n n b ; ; ; ; d k k l k p ; ; ; ; 8 o.o.o.o.o.o.o.o.o.o.8 ; ; ; ; ; ; ; n n ",
"{.{.{.{.{.{.{.{.n n 2 2 2 ; ; d k k l l i ; ; ; ; 8 o.o.o.o.o.o.o.o.o.o.0 8 < ; ; ; ; : b n ",
"{.{.{.{.{.{.{.{.n n f k i ; ; d l l x x z ; ; ; ; 8 o.o.o.o.o.o.o.o.o.o.o.o.! ; ; ; ; : n n ",
"{.{.{.{.{.{.{.{.n n d l p ; ; d l l x x a ; ; ; ; 8 o.o.o.o.o.o.o.o.o.o.o.o.! ; ; ; ; : n n ",
"{.{.{./ / / / / t t e s 3 ; ; p x z s d 2 ; ; ; ; 8 o.o.o.o.o.o.o.o.o.o.o.o.` ! ! ; ; : n n ",
"{.{./ / / / / / / / w ; ; ; ; f x a ; ; ; ; ; ; ; 8 o.o.o.o.o.o.o.o.o.o.o.o.o.o.o.; ; b n n ",
"{.{.[ ] ] ] ] ] / / w < < ; ; d a f ; ; ; ; ; , 8 0 o.o.o.o.o.o.o.o.o.o.o.o.o.o.o.< , < C C ",
"/ / X.o.o.o.o.o./ / / / | ; ; ; ; ; ; ; ; ; ; ` o.o.o.o.o.o.o.o.o.o.o.o.o.o.o.o.o./ / / / / ",
"/ / ' O.o.o.o.o./ / / / 7 : ; ; ; ; ; ; ; ; ; ` o.o.o.o.o.o.o.o.o.o.o.o.o.o.o.o.o./ / / / / ",
"# # ~ } } X.O.O._ _ ] / / t t 7 ! ! ! ! ! ! ! X.o.o.o.o.o.o.o.o.o.o.o.o._ } } } } / / 6 # # ",
"    5 / / X.o.O.o.o.} / / /  .X.o.o.o.o.o.o.o.O.o.o.o.o.o.o.o.o.o.o.o.o.] / / / / / / 5     ",
"    4 7 7 } X.X.o.o._ ] / / / ' X.X.o.o.o.o.o.o.o.o.o.o.o.o.O.X.X.X.X.X.] /  . . .7 7 4     ",
"{.{.      5 / / o.o.o.o.X./ / / / ] o.o.o.o.o.o.o.o.o.o.o.o._ / / / / / / / ..L L       {.{.",
"{.{.      5 / / o.o.o.o.X./ / / / ] o.o.o.o.o.o.o.o.o.o.o.o._ / / / / / / / ..L L       {.{.",
"{.{.{.    4 7 6 X.X.` ) ) / / / / [ X.X.X.X.X.X.X.X.X.X.X.X.' / /  . . .| 7 t y y     {.{.{.",
"{.{.{.{.{.      / / 4   o / / / / / / / / / / / / / / / / / / / / u P L O         {.{.{.{.{.",
"{.{.{.{.{.      / / #   o / / / / / / / / / / / / / / / / / / / / u L L O         {.{.{.{.{.",
"{.{.{.{.{.{.{.{.o o 8 y y e e %.K.G.8.8.$.e e &.8.$., , , , , , , @ O O 2 Z Z Z Z     {.{.{.",
"{.{.{.{.{.{.{.{.    8 v P 3 A l.'.L.U.9.2.1 A 2.q.3.- > - > - - - .     Z D D D D       {.{.",
"{.{.{.{.{.{.{.{.O O y @.P 2 2 l.'.'.U.9.2.A A 2.q.2.K K > - - - - @ + + Z D S Z Z       {.{.",
"{.{.{.{.{.{.{.{.L L &.q.1.    S.[.].9.U.2.A A 2.q.q.q.q.K - - - - S D D D D 2               ",
"{.{.{.{.{.{.{.{.L L &.q.1.    S.[.].q.q.2.A A 2.q.q.q.q.K - - - - S D D D D 2               ",
"{.{.{.{.{.{.{.{.0.0.E.Q.^.Y.Y.^.].].Q.Q.T.2.2.9.q.q.q.q.K - - - - - 1 1 1 1 - & & {.{.{.{.{.",
"{.{.{.{.{.{.{.{.9.9.T.~.~.~.~.~.~.~.~.~.Q.q.q.q.q.q.q.q.K - - - - - - - - - - - - {.{.{.{.{.",
"{.{.{.{.{.{.{.{.q.U.T.~.~.~.~.~.~.~.~.~.Q.q.q.q.q.q.q.q.K - - - - - - - - - - & & {.{.{.{.{.",
"{.{.{.{.{.{.{.{.q.q.T.~.~.~.~.~.~.~.~.~.Q.q.q.q.q.q.q.q.K - - - - - - - - - @           {.{.",
"{.{.{.{.{.{.{.{.q.q.T.~.~.~.~.~.~.~.~.~.Q.q.q.q.q.q.q.q.K - - - - - - - - - %           {.{.",
"{.{.{.{.{.{.{.{.{.{.I.I.E.~.~.~.~.Q.I.I.I.q.q.q.9.0.@.@.2 1 - - - b.m.m.m.m.U     {.{.{.{.{.",
"{.{.{.{.{.{.{.{.{.{.q.q.I.~.~.~.~.Q.q.9.q.q.q.q.q.0.L L 2 - - - > m.(.(.(.(.f.    {.{.{.{.{.",
"{.{.{.{.{.{.{.{.{.{.{.q.I.~.~.Y.P.P.E.U.q.&.&.G.L.G.E E Y J Y Y U /././.(.(.h.    {.{.{.{.{.",
"{.{.{.{.{.{.{.{.{.{.{.{.{.{.{.L L #.R.R.U.L @.m.V.V.V.V.V.V.C.(.(.(.(.(.(.(.f.    {.{.{.{.{.",
"{.{.{.{.{.{.{.{.{.{.{.{.{.{.{.L L #.R.R.U.u u n.V.V.V.V.V.V.C.(.(.(.(.(.(.(.f.    {.{.{.{.{.",
"{.{.{.{.{.{.{.{.{.{.{.{.{.{.{.q q v !.!.T.E j.v.N.N.N.N.d.d.b.C././.(.(.).).h.    {.{.{.{.{.",
"{.{.{.{.{.{.{.{.{.{.{.{.{.{.{.    3 ~.~.W.V.V.a.i.i.u.u.$   F V.V.).(.(.Z.V.V.{.{.{.{.{.{.{.",
"{.{.{.{.{.{.{.{.{.{.{.{.{.{.{.    , ~.~.W.V.V.a.i.i.u.u.$   F V.V.).(.(.C.V.V.{.{.{.{.{.{.{.",
"{.{.{.{.{.{.{.{.{.{.{.{.{.{.{.=.=.:././.Z.a.a.i.i.i.u.u.r.r.V & * M.Z.Z.{.{.{.{.{.{.{.{.{.{.",
"{.{.{.{.{.{.{.{.{.{.{.{.{.{.{.,.,.<.V.V.B.i.i.i.i.i.u.u.i.i.V     v.V.V.{.{.{.{.{.{.{.{.{.{.",
"{.{.{.{.{.{.{.{.{.{.{.{.{.{.{.;.7.6.N.N.c.y.y.g.j.g.u.u.i.i.V     g.V.V.{.{.{.{.{.{.{.{.{.{.",
"{.{.{.{.{.{.{.{.{.{.{.{.{.    d.V.B.i.u.y.x.x.F.9.F.u.u.i.i.V     {.{.{.{.{.{.{.{.{.{.{.{.{.",
"{.{.{.{.{.{.{.{.{.{.{.{.{.    d.V.B.u.u.y.x.x.F.9.4.u.u.s.s.V     {.{.{.{.{.{.{.{.{.{.{.{.{.",
"{.{.{.{.{.{.{.{.{.{.{.{.{.    c <.7.i.i.p.x.x.F.q.5.e.e.;.:.j     {.{.{.{.{.{.{.{.{.{.{.{.{.",
"{.{.{.{.{.{.{.{.{.{.{.{.{.    +.,.<.i.i.p.x.x.F.q.5.w.w.-.,.+.    {.{.{.{.{.{.{.{.{.{.{.{.{.",
"{.{.{.{.{.{.{.{.{.{.{.{.+ @ @ v >.;.W W R B B z.%.Q w.w.*.>.j       {.{.{.{.{.{.{.{.{.{.{.{.",
"{.{.{.{.{.{.{.{.J.J.K   + A A H t.R ,.,.=.    N w.w.w.w.t.t.m           {.{.{.{.{.{.{.{.{.{.",
"{.{.{.{.{.{.{.{.J.J.A   + A A H U R ,.,.=.    N w.w.w.w.t.U m           {.{.{.{.{.{.{.{.{.{.",
"{.{.{.{.{.      [.[._.J.J.J.J.j.U t.d.t.G     G d.t.t.t.S.J.J.J.J.=     {.{.{.{.{.{.{.{.{.{.",
"{.{.{.{.{.      [.[._.J.J.J.J.j.d.t.U t.G     G J U d.U H.J.J.J.J.&     {.{.{.{.{.{.{.{.{.{.",
"{.{.{.{.{.      [.[._.J.J.J.J.j.U t.J d.G     G J J t.d.H.J.J.J.J.=     {.{.{.{.{.{.{.{.{.{.",
"{.{.{.{.{.{.{.{.    S.[.[.[.[._.J.k.                    `.[.[.[.[.3     {.{.{.{.{.{.{.{.{.{.",
"{.{.{.{.{.{.{.{.    S.[.[.[.[._.J.k.                    `.[.[.[.[.3     {.{.{.{.{.{.{.{.{.{.",
"{.{.{.{.{.{.{.{.    R S.S.S.S.D.J.k.                    k.S.S.S.S.>     {.{.{.{.{.{.{.{.{.{.",
"{.{.{.{.{.{.{.{.{.{.          {.{.{.{.{.{.{.{.{.{.{.{.{.          {.{.{.{.{.{.{.{.{.{.{.{.{.",
"{.{.{.{.{.{.{.{.{.{.          {.{.{.{.{.{.{.{.{.{.{.{.{.          {.{.{.{.{.{.{.{.{.{.{.{.{."
};
